<?xml version="1.0" encoding="utf-8" standalone="no"?>
<!DOCTYPE svg PUBLIC "-//W3C//DTD SVG 1.1//EN"
  "http://www.w3.org/Graphics/SVG/1.1/DTD/svg11.dtd">
<!-- Created with matplotlib (https://matplotlib.org/) -->
<svg height="345.6pt" version="1.1" viewBox="0 0 460.8 345.6" width="460.8pt" xmlns="http://www.w3.org/2000/svg" xmlns:xlink="http://www.w3.org/1999/xlink">
 <metadata>
  <rdf:RDF xmlns:cc="http://creativecommons.org/ns#" xmlns:dc="http://purl.org/dc/elements/1.1/" xmlns:rdf="http://www.w3.org/1999/02/22-rdf-syntax-ns#">
   <cc:Work>
    <dc:type rdf:resource="http://purl.org/dc/dcmitype/StillImage"/>
    <dc:date>2022-05-30T11:57:28.218456</dc:date>
    <dc:format>image/svg+xml</dc:format>
    <dc:creator>
     <cc:Agent>
      <dc:title>Matplotlib v3.3.4, https://matplotlib.org/</dc:title>
     </cc:Agent>
    </dc:creator>
   </cc:Work>
  </rdf:RDF>
 </metadata>
 <defs>
  <style type="text/css">*{stroke-linecap:butt;stroke-linejoin:round;}</style>
 </defs>
 <g id="figure_1">
  <g id="patch_1">
   <path d="M 0 345.6 
L 460.8 345.6 
L 460.8 0 
L 0 0 
z
" style="fill:#ffffff;"/>
  </g>
  <g id="axes_1">
   <g id="patch_2">
    <path d="M 57.6 307.584 
L 414.72 307.584 
L 414.72 41.472 
L 57.6 41.472 
z
" style="fill:#ffffff;"/>
   </g>
   <g id="QuadMesh_1">
    <path clip-path="url(#p435fe9c710)" d="M 57.6 41.472 
L 68.76 41.472 
L 68.76 74.736 
L 57.6 74.736 
L 57.6 41.472 
" style="fill:#3b4cc0;"/>
    <path clip-path="url(#p435fe9c710)" d="M 68.76 41.472 
L 79.92 41.472 
L 79.92 74.736 
L 68.76 74.736 
L 68.76 41.472 
" style="fill:#3b4cc0;"/>
    <path clip-path="url(#p435fe9c710)" d="M 79.92 41.472 
L 91.08 41.472 
L 91.08 74.736 
L 79.92 74.736 
L 79.92 41.472 
" style="fill:#3b4cc0;"/>
    <path clip-path="url(#p435fe9c710)" d="M 91.08 41.472 
L 102.24 41.472 
L 102.24 74.736 
L 91.08 74.736 
L 91.08 41.472 
" style="fill:#3b4cc0;"/>
    <path clip-path="url(#p435fe9c710)" d="M 102.24 41.472 
L 113.4 41.472 
L 113.4 74.736 
L 102.24 74.736 
L 102.24 41.472 
" style="fill:#3b4cc0;"/>
    <path clip-path="url(#p435fe9c710)" d="M 113.4 41.472 
L 124.56 41.472 
L 124.56 74.736 
L 113.4 74.736 
L 113.4 41.472 
" style="fill:#3b4cc0;"/>
    <path clip-path="url(#p435fe9c710)" d="M 124.56 41.472 
L 135.72 41.472 
L 135.72 74.736 
L 124.56 74.736 
L 124.56 41.472 
" style="fill:#3b4cc0;"/>
    <path clip-path="url(#p435fe9c710)" d="M 135.72 41.472 
L 146.88 41.472 
L 146.88 74.736 
L 135.72 74.736 
L 135.72 41.472 
" style="fill:#3b4cc0;"/>
    <path clip-path="url(#p435fe9c710)" d="M 146.88 41.472 
L 158.04 41.472 
L 158.04 74.736 
L 146.88 74.736 
L 146.88 41.472 
" style="fill:#3b4cc0;"/>
    <path clip-path="url(#p435fe9c710)" d="M 158.04 41.472 
L 169.2 41.472 
L 169.2 74.736 
L 158.04 74.736 
L 158.04 41.472 
" style="fill:#3b4cc0;"/>
    <path clip-path="url(#p435fe9c710)" d="M 169.2 41.472 
L 180.36 41.472 
L 180.36 74.736 
L 169.2 74.736 
L 169.2 41.472 
" style="fill:#3b4cc0;"/>
    <path clip-path="url(#p435fe9c710)" d="M 180.36 41.472 
L 191.52 41.472 
L 191.52 74.736 
L 180.36 74.736 
L 180.36 41.472 
" style="fill:#3b4cc0;"/>
    <path clip-path="url(#p435fe9c710)" d="M 191.52 41.472 
L 202.68 41.472 
L 202.68 74.736 
L 191.52 74.736 
L 191.52 41.472 
" style="fill:#3b4cc0;"/>
    <path clip-path="url(#p435fe9c710)" d="M 202.68 41.472 
L 213.84 41.472 
L 213.84 74.736 
L 202.68 74.736 
L 202.68 41.472 
" style="fill:#3b4cc0;"/>
    <path clip-path="url(#p435fe9c710)" d="M 213.84 41.472 
L 225 41.472 
L 225 74.736 
L 213.84 74.736 
L 213.84 41.472 
" style="fill:#3b4cc0;"/>
    <path clip-path="url(#p435fe9c710)" d="M 225 41.472 
L 236.16 41.472 
L 236.16 74.736 
L 225 74.736 
L 225 41.472 
" style="fill:#3b4cc0;"/>
    <path clip-path="url(#p435fe9c710)" d="M 236.16 41.472 
L 247.32 41.472 
L 247.32 74.736 
L 236.16 74.736 
L 236.16 41.472 
" style="fill:#3b4cc0;"/>
    <path clip-path="url(#p435fe9c710)" d="M 247.32 41.472 
L 258.48 41.472 
L 258.48 74.736 
L 247.32 74.736 
L 247.32 41.472 
" style="fill:#3b4cc0;"/>
    <path clip-path="url(#p435fe9c710)" d="M 258.48 41.472 
L 269.64 41.472 
L 269.64 74.736 
L 258.48 74.736 
L 258.48 41.472 
" style="fill:#3b4cc0;"/>
    <path clip-path="url(#p435fe9c710)" d="M 269.64 41.472 
L 280.8 41.472 
L 280.8 74.736 
L 269.64 74.736 
L 269.64 41.472 
" style="fill:#3b4cc0;"/>
    <path clip-path="url(#p435fe9c710)" d="M 280.8 41.472 
L 291.96 41.472 
L 291.96 74.736 
L 280.8 74.736 
L 280.8 41.472 
" style="fill:#3b4cc0;"/>
    <path clip-path="url(#p435fe9c710)" d="M 291.96 41.472 
L 303.12 41.472 
L 303.12 74.736 
L 291.96 74.736 
L 291.96 41.472 
" style="fill:#3b4cc0;"/>
    <path clip-path="url(#p435fe9c710)" d="M 303.12 41.472 
L 314.28 41.472 
L 314.28 74.736 
L 303.12 74.736 
L 303.12 41.472 
" style="fill:#3b4cc0;"/>
    <path clip-path="url(#p435fe9c710)" d="M 314.28 41.472 
L 325.44 41.472 
L 325.44 74.736 
L 314.28 74.736 
L 314.28 41.472 
" style="fill:#5977e3;"/>
    <path clip-path="url(#p435fe9c710)" d="M 325.44 41.472 
L 336.6 41.472 
L 336.6 74.736 
L 325.44 74.736 
L 325.44 41.472 
" style="fill:#3b4cc0;"/>
    <path clip-path="url(#p435fe9c710)" d="M 336.6 41.472 
L 347.76 41.472 
L 347.76 74.736 
L 336.6 74.736 
L 336.6 41.472 
" style="fill:#3b4cc0;"/>
    <path clip-path="url(#p435fe9c710)" d="M 347.76 41.472 
L 358.92 41.472 
L 358.92 74.736 
L 347.76 74.736 
L 347.76 41.472 
" style="fill:#3b4cc0;"/>
    <path clip-path="url(#p435fe9c710)" d="M 358.92 41.472 
L 370.08 41.472 
L 370.08 74.736 
L 358.92 74.736 
L 358.92 41.472 
" style="fill:#3b4cc0;"/>
    <path clip-path="url(#p435fe9c710)" d="M 370.08 41.472 
L 381.24 41.472 
L 381.24 74.736 
L 370.08 74.736 
L 370.08 41.472 
" style="fill:#3b4cc0;"/>
    <path clip-path="url(#p435fe9c710)" d="M 381.24 41.472 
L 392.4 41.472 
L 392.4 74.736 
L 381.24 74.736 
L 381.24 41.472 
" style="fill:#3b4cc0;"/>
    <path clip-path="url(#p435fe9c710)" d="M 392.4 41.472 
L 403.56 41.472 
L 403.56 74.736 
L 392.4 74.736 
L 392.4 41.472 
" style="fill:#3b4cc0;"/>
    <path clip-path="url(#p435fe9c710)" d="M 403.56 41.472 
L 414.72 41.472 
L 414.72 74.736 
L 403.56 74.736 
L 403.56 41.472 
" style="fill:#3b4cc0;"/>
    <path clip-path="url(#p435fe9c710)" d="M 57.6 74.736 
L 68.76 74.736 
L 68.76 108 
L 57.6 108 
L 57.6 74.736 
" style="fill:#3b4cc0;"/>
    <path clip-path="url(#p435fe9c710)" d="M 68.76 74.736 
L 79.92 74.736 
L 79.92 108 
L 68.76 108 
L 68.76 74.736 
" style="fill:#3b4cc0;"/>
    <path clip-path="url(#p435fe9c710)" d="M 79.92 74.736 
L 91.08 74.736 
L 91.08 108 
L 79.92 108 
L 79.92 74.736 
" style="fill:#cbd8ee;"/>
    <path clip-path="url(#p435fe9c710)" d="M 91.08 74.736 
L 102.24 74.736 
L 102.24 108 
L 91.08 108 
L 91.08 74.736 
" style="fill:#3b4cc0;"/>
    <path clip-path="url(#p435fe9c710)" d="M 102.24 74.736 
L 113.4 74.736 
L 113.4 108 
L 102.24 108 
L 102.24 74.736 
" style="fill:#465ecf;"/>
    <path clip-path="url(#p435fe9c710)" d="M 113.4 74.736 
L 124.56 74.736 
L 124.56 108 
L 113.4 108 
L 113.4 74.736 
" style="fill:#485fd1;"/>
    <path clip-path="url(#p435fe9c710)" d="M 124.56 74.736 
L 135.72 74.736 
L 135.72 108 
L 124.56 108 
L 124.56 74.736 
" style="fill:#3b4cc0;"/>
    <path clip-path="url(#p435fe9c710)" d="M 135.72 74.736 
L 146.88 74.736 
L 146.88 108 
L 135.72 108 
L 135.72 74.736 
" style="fill:#3c4ec2;"/>
    <path clip-path="url(#p435fe9c710)" d="M 146.88 74.736 
L 158.04 74.736 
L 158.04 108 
L 146.88 108 
L 146.88 74.736 
" style="fill:#3d50c3;"/>
    <path clip-path="url(#p435fe9c710)" d="M 158.04 74.736 
L 169.2 74.736 
L 169.2 108 
L 158.04 108 
L 158.04 74.736 
" style="fill:#3d50c3;"/>
    <path clip-path="url(#p435fe9c710)" d="M 169.2 74.736 
L 180.36 74.736 
L 180.36 108 
L 169.2 108 
L 169.2 74.736 
" style="fill:#536edd;"/>
    <path clip-path="url(#p435fe9c710)" d="M 180.36 74.736 
L 191.52 74.736 
L 191.52 108 
L 180.36 108 
L 180.36 74.736 
" style="fill:#4358cb;"/>
    <path clip-path="url(#p435fe9c710)" d="M 191.52 74.736 
L 202.68 74.736 
L 202.68 108 
L 191.52 108 
L 191.52 74.736 
" style="fill:#4358cb;"/>
    <path clip-path="url(#p435fe9c710)" d="M 202.68 74.736 
L 213.84 74.736 
L 213.84 108 
L 202.68 108 
L 202.68 74.736 
" style="fill:#4358cb;"/>
    <path clip-path="url(#p435fe9c710)" d="M 213.84 74.736 
L 225 74.736 
L 225 108 
L 213.84 108 
L 213.84 74.736 
" style="fill:#3b4cc0;"/>
    <path clip-path="url(#p435fe9c710)" d="M 225 74.736 
L 236.16 74.736 
L 236.16 108 
L 225 108 
L 225 74.736 
" style="fill:#3b4cc0;"/>
    <path clip-path="url(#p435fe9c710)" d="M 236.16 74.736 
L 247.32 74.736 
L 247.32 108 
L 236.16 108 
L 236.16 74.736 
" style="fill:#455cce;"/>
    <path clip-path="url(#p435fe9c710)" d="M 247.32 74.736 
L 258.48 74.736 
L 258.48 108 
L 247.32 108 
L 247.32 74.736 
" style="fill:#3c4ec2;"/>
    <path clip-path="url(#p435fe9c710)" d="M 258.48 74.736 
L 269.64 74.736 
L 269.64 108 
L 258.48 108 
L 258.48 74.736 
" style="fill:#3b4cc0;"/>
    <path clip-path="url(#p435fe9c710)" d="M 269.64 74.736 
L 280.8 74.736 
L 280.8 108 
L 269.64 108 
L 269.64 74.736 
" style="fill:#4055c8;"/>
    <path clip-path="url(#p435fe9c710)" d="M 280.8 74.736 
L 291.96 74.736 
L 291.96 108 
L 280.8 108 
L 280.8 74.736 
" style="fill:#b40426;"/>
    <path clip-path="url(#p435fe9c710)" d="M 291.96 74.736 
L 303.12 74.736 
L 303.12 108 
L 291.96 108 
L 291.96 74.736 
" style="fill:#3d50c3;"/>
    <path clip-path="url(#p435fe9c710)" d="M 303.12 74.736 
L 314.28 74.736 
L 314.28 108 
L 303.12 108 
L 303.12 74.736 
" style="fill:#3b4cc0;"/>
    <path clip-path="url(#p435fe9c710)" d="M 314.28 74.736 
L 325.44 74.736 
L 325.44 108 
L 314.28 108 
L 314.28 74.736 
" style="fill:#e8d6cc;"/>
    <path clip-path="url(#p435fe9c710)" d="M 325.44 74.736 
L 336.6 74.736 
L 336.6 108 
L 325.44 108 
L 325.44 74.736 
" style="fill:#4a63d3;"/>
    <path clip-path="url(#p435fe9c710)" d="M 336.6 74.736 
L 347.76 74.736 
L 347.76 108 
L 336.6 108 
L 336.6 74.736 
" style="fill:#b40426;"/>
    <path clip-path="url(#p435fe9c710)" d="M 347.76 74.736 
L 358.92 74.736 
L 358.92 108 
L 347.76 108 
L 347.76 74.736 
" style="fill:#3c4ec2;"/>
    <path clip-path="url(#p435fe9c710)" d="M 358.92 74.736 
L 370.08 74.736 
L 370.08 108 
L 358.92 108 
L 358.92 74.736 
" style="fill:#4f69d9;"/>
    <path clip-path="url(#p435fe9c710)" d="M 370.08 74.736 
L 381.24 74.736 
L 381.24 108 
L 370.08 108 
L 370.08 74.736 
" style="fill:#b40426;"/>
    <path clip-path="url(#p435fe9c710)" d="M 381.24 74.736 
L 392.4 74.736 
L 392.4 108 
L 381.24 108 
L 381.24 74.736 
" style="fill:#3d50c3;"/>
    <path clip-path="url(#p435fe9c710)" d="M 392.4 74.736 
L 403.56 74.736 
L 403.56 108 
L 392.4 108 
L 392.4 74.736 
" style="fill:#3c4ec2;"/>
    <path clip-path="url(#p435fe9c710)" d="M 403.56 74.736 
L 414.72 74.736 
L 414.72 108 
L 403.56 108 
L 403.56 74.736 
" style="fill:#3d50c3;"/>
    <path clip-path="url(#p435fe9c710)" d="M 57.6 108 
L 68.76 108 
L 68.76 141.264 
L 57.6 141.264 
L 57.6 108 
" style="fill:#b40426;"/>
    <path clip-path="url(#p435fe9c710)" d="M 68.76 108 
L 79.92 108 
L 79.92 141.264 
L 68.76 141.264 
L 68.76 108 
" style="fill:#3c4ec2;"/>
    <path clip-path="url(#p435fe9c710)" d="M 79.92 108 
L 91.08 108 
L 91.08 141.264 
L 79.92 141.264 
L 79.92 108 
" style="fill:#9dbdff;"/>
    <path clip-path="url(#p435fe9c710)" d="M 91.08 108 
L 102.24 108 
L 102.24 141.264 
L 91.08 141.264 
L 91.08 108 
" style="fill:#b40426;"/>
    <path clip-path="url(#p435fe9c710)" d="M 102.24 108 
L 113.4 108 
L 113.4 141.264 
L 102.24 141.264 
L 102.24 108 
" style="fill:#7597f6;"/>
    <path clip-path="url(#p435fe9c710)" d="M 113.4 108 
L 124.56 108 
L 124.56 141.264 
L 113.4 141.264 
L 113.4 108 
" style="fill:#b40426;"/>
    <path clip-path="url(#p435fe9c710)" d="M 124.56 108 
L 135.72 108 
L 135.72 141.264 
L 124.56 141.264 
L 124.56 108 
" style="fill:#4257c9;"/>
    <path clip-path="url(#p435fe9c710)" d="M 135.72 108 
L 146.88 108 
L 146.88 141.264 
L 135.72 141.264 
L 135.72 108 
" style="fill:#b40426;"/>
    <path clip-path="url(#p435fe9c710)" d="M 146.88 108 
L 158.04 108 
L 158.04 141.264 
L 146.88 141.264 
L 146.88 108 
" style="fill:#536edd;"/>
    <path clip-path="url(#p435fe9c710)" d="M 158.04 108 
L 169.2 108 
L 169.2 141.264 
L 158.04 141.264 
L 158.04 108 
" style="fill:#4961d2;"/>
    <path clip-path="url(#p435fe9c710)" d="M 169.2 108 
L 180.36 108 
L 180.36 141.264 
L 169.2 141.264 
L 169.2 108 
" style="fill:#b40426;"/>
    <path clip-path="url(#p435fe9c710)" d="M 180.36 108 
L 191.52 108 
L 191.52 141.264 
L 180.36 141.264 
L 180.36 108 
" style="fill:#b40426;"/>
    <path clip-path="url(#p435fe9c710)" d="M 191.52 108 
L 202.68 108 
L 202.68 141.264 
L 191.52 141.264 
L 191.52 108 
" style="fill:#b40426;"/>
    <path clip-path="url(#p435fe9c710)" d="M 202.68 108 
L 213.84 108 
L 213.84 141.264 
L 202.68 141.264 
L 202.68 108 
" style="fill:#6180e9;"/>
    <path clip-path="url(#p435fe9c710)" d="M 213.84 108 
L 225 108 
L 225 141.264 
L 213.84 141.264 
L 213.84 108 
" style="fill:#485fd1;"/>
    <path clip-path="url(#p435fe9c710)" d="M 225 108 
L 236.16 108 
L 236.16 141.264 
L 225 141.264 
L 225 108 
" style="fill:#455cce;"/>
    <path clip-path="url(#p435fe9c710)" d="M 236.16 108 
L 247.32 108 
L 247.32 141.264 
L 236.16 141.264 
L 236.16 108 
" style="fill:#b40426;"/>
    <path clip-path="url(#p435fe9c710)" d="M 247.32 108 
L 258.48 108 
L 258.48 141.264 
L 247.32 141.264 
L 247.32 108 
" style="fill:#3e51c5;"/>
    <path clip-path="url(#p435fe9c710)" d="M 258.48 108 
L 269.64 108 
L 269.64 141.264 
L 258.48 141.264 
L 258.48 108 
" style="fill:#3f53c6;"/>
    <path clip-path="url(#p435fe9c710)" d="M 269.64 108 
L 280.8 108 
L 280.8 141.264 
L 269.64 141.264 
L 269.64 108 
" style="fill:#4961d2;"/>
    <path clip-path="url(#p435fe9c710)" d="M 280.8 108 
L 291.96 108 
L 291.96 141.264 
L 280.8 141.264 
L 280.8 108 
" style="fill:#dbdcde;"/>
    <path clip-path="url(#p435fe9c710)" d="M 291.96 108 
L 303.12 108 
L 303.12 141.264 
L 291.96 141.264 
L 291.96 108 
" style="fill:#b40426;"/>
    <path clip-path="url(#p435fe9c710)" d="M 303.12 108 
L 314.28 108 
L 314.28 141.264 
L 303.12 141.264 
L 303.12 108 
" style="fill:#455cce;"/>
    <path clip-path="url(#p435fe9c710)" d="M 314.28 108 
L 325.44 108 
L 325.44 141.264 
L 314.28 141.264 
L 314.28 108 
" style="fill:#b40426;"/>
    <path clip-path="url(#p435fe9c710)" d="M 325.44 108 
L 336.6 108 
L 336.6 141.264 
L 325.44 141.264 
L 325.44 108 
" style="fill:#b40426;"/>
    <path clip-path="url(#p435fe9c710)" d="M 336.6 108 
L 347.76 108 
L 347.76 141.264 
L 336.6 141.264 
L 336.6 108 
" style="fill:#6384eb;"/>
    <path clip-path="url(#p435fe9c710)" d="M 347.76 108 
L 358.92 108 
L 358.92 141.264 
L 347.76 141.264 
L 347.76 108 
" style="fill:#b40426;"/>
    <path clip-path="url(#p435fe9c710)" d="M 358.92 108 
L 370.08 108 
L 370.08 141.264 
L 358.92 141.264 
L 358.92 108 
" style="fill:#b40426;"/>
    <path clip-path="url(#p435fe9c710)" d="M 370.08 108 
L 381.24 108 
L 381.24 141.264 
L 370.08 141.264 
L 370.08 108 
" style="fill:#bbd1f8;"/>
    <path clip-path="url(#p435fe9c710)" d="M 381.24 108 
L 392.4 108 
L 392.4 141.264 
L 381.24 141.264 
L 381.24 108 
" style="fill:#3e51c5;"/>
    <path clip-path="url(#p435fe9c710)" d="M 392.4 108 
L 403.56 108 
L 403.56 141.264 
L 392.4 141.264 
L 392.4 108 
" style="fill:#7295f4;"/>
    <path clip-path="url(#p435fe9c710)" d="M 403.56 108 
L 414.72 108 
L 414.72 141.264 
L 403.56 141.264 
L 403.56 108 
" style="fill:#7da0f9;"/>
    <path clip-path="url(#p435fe9c710)" d="M 57.6 141.264 
L 68.76 141.264 
L 68.76 174.528 
L 57.6 174.528 
L 57.6 141.264 
" style="fill:#cfdaea;"/>
    <path clip-path="url(#p435fe9c710)" d="M 68.76 141.264 
L 79.92 141.264 
L 79.92 174.528 
L 68.76 174.528 
L 68.76 141.264 
" style="fill:#4a63d3;"/>
    <path clip-path="url(#p435fe9c710)" d="M 79.92 141.264 
L 91.08 141.264 
L 91.08 174.528 
L 79.92 174.528 
L 79.92 141.264 
" style="fill:#b40426;"/>
    <path clip-path="url(#p435fe9c710)" d="M 91.08 141.264 
L 102.24 141.264 
L 102.24 174.528 
L 91.08 174.528 
L 91.08 141.264 
" style="fill:#6180e9;"/>
    <path clip-path="url(#p435fe9c710)" d="M 102.24 141.264 
L 113.4 141.264 
L 113.4 174.528 
L 102.24 174.528 
L 102.24 141.264 
" style="fill:#5e7de7;"/>
    <path clip-path="url(#p435fe9c710)" d="M 113.4 141.264 
L 124.56 141.264 
L 124.56 174.528 
L 113.4 174.528 
L 113.4 141.264 
" style="fill:#7093f3;"/>
    <path clip-path="url(#p435fe9c710)" d="M 124.56 141.264 
L 135.72 141.264 
L 135.72 174.528 
L 124.56 174.528 
L 124.56 141.264 
" style="fill:#465ecf;"/>
    <path clip-path="url(#p435fe9c710)" d="M 135.72 141.264 
L 146.88 141.264 
L 146.88 174.528 
L 135.72 174.528 
L 135.72 141.264 
" style="fill:#6180e9;"/>
    <path clip-path="url(#p435fe9c710)" d="M 146.88 141.264 
L 158.04 141.264 
L 158.04 174.528 
L 146.88 174.528 
L 146.88 141.264 
" style="fill:#5f7fe8;"/>
    <path clip-path="url(#p435fe9c710)" d="M 158.04 141.264 
L 169.2 141.264 
L 169.2 174.528 
L 158.04 174.528 
L 158.04 141.264 
" style="fill:#5673e0;"/>
    <path clip-path="url(#p435fe9c710)" d="M 169.2 141.264 
L 180.36 141.264 
L 180.36 174.528 
L 169.2 174.528 
L 169.2 141.264 
" style="fill:#7597f6;"/>
    <path clip-path="url(#p435fe9c710)" d="M 180.36 141.264 
L 191.52 141.264 
L 191.52 174.528 
L 180.36 174.528 
L 180.36 141.264 
" style="fill:#8caffe;"/>
    <path clip-path="url(#p435fe9c710)" d="M 191.52 141.264 
L 202.68 141.264 
L 202.68 174.528 
L 191.52 174.528 
L 191.52 141.264 
" style="fill:#98b9ff;"/>
    <path clip-path="url(#p435fe9c710)" d="M 202.68 141.264 
L 213.84 141.264 
L 213.84 174.528 
L 202.68 174.528 
L 202.68 141.264 
" style="fill:#5875e1;"/>
    <path clip-path="url(#p435fe9c710)" d="M 213.84 141.264 
L 225 141.264 
L 225 174.528 
L 213.84 174.528 
L 213.84 141.264 
" style="fill:#485fd1;"/>
    <path clip-path="url(#p435fe9c710)" d="M 225 141.264 
L 236.16 141.264 
L 236.16 174.528 
L 225 174.528 
L 225 141.264 
" style="fill:#4c66d6;"/>
    <path clip-path="url(#p435fe9c710)" d="M 236.16 141.264 
L 247.32 141.264 
L 247.32 174.528 
L 236.16 174.528 
L 236.16 141.264 
" style="fill:#7b9ff9;"/>
    <path clip-path="url(#p435fe9c710)" d="M 247.32 141.264 
L 258.48 141.264 
L 258.48 174.528 
L 247.32 174.528 
L 247.32 141.264 
" style="fill:#3c4ec2;"/>
    <path clip-path="url(#p435fe9c710)" d="M 258.48 141.264 
L 269.64 141.264 
L 269.64 174.528 
L 258.48 174.528 
L 258.48 141.264 
" style="fill:#465ecf;"/>
    <path clip-path="url(#p435fe9c710)" d="M 269.64 141.264 
L 280.8 141.264 
L 280.8 174.528 
L 269.64 174.528 
L 269.64 141.264 
" style="fill:#6a8bef;"/>
    <path clip-path="url(#p435fe9c710)" d="M 280.8 141.264 
L 291.96 141.264 
L 291.96 174.528 
L 280.8 174.528 
L 280.8 141.264 
" style="fill:#5b7ae5;"/>
    <path clip-path="url(#p435fe9c710)" d="M 291.96 141.264 
L 303.12 141.264 
L 303.12 174.528 
L 291.96 174.528 
L 291.96 141.264 
" style="fill:#9bbcff;"/>
    <path clip-path="url(#p435fe9c710)" d="M 303.12 141.264 
L 314.28 141.264 
L 314.28 174.528 
L 303.12 174.528 
L 303.12 141.264 
" style="fill:#799cf8;"/>
    <path clip-path="url(#p435fe9c710)" d="M 314.28 141.264 
L 325.44 141.264 
L 325.44 174.528 
L 314.28 174.528 
L 314.28 141.264 
" style="fill:#3e51c5;"/>
    <path clip-path="url(#p435fe9c710)" d="M 325.44 141.264 
L 336.6 141.264 
L 336.6 174.528 
L 325.44 174.528 
L 325.44 141.264 
" style="fill:#6b8df0;"/>
    <path clip-path="url(#p435fe9c710)" d="M 336.6 141.264 
L 347.76 141.264 
L 347.76 174.528 
L 336.6 174.528 
L 336.6 141.264 
" style="fill:#5875e1;"/>
    <path clip-path="url(#p435fe9c710)" d="M 347.76 141.264 
L 358.92 141.264 
L 358.92 174.528 
L 347.76 174.528 
L 347.76 141.264 
" style="fill:#9dbdff;"/>
    <path clip-path="url(#p435fe9c710)" d="M 358.92 141.264 
L 370.08 141.264 
L 370.08 174.528 
L 358.92 174.528 
L 358.92 141.264 
" style="fill:#5977e3;"/>
    <path clip-path="url(#p435fe9c710)" d="M 370.08 141.264 
L 381.24 141.264 
L 381.24 174.528 
L 370.08 174.528 
L 370.08 141.264 
" style="fill:#6c8ff1;"/>
    <path clip-path="url(#p435fe9c710)" d="M 381.24 141.264 
L 392.4 141.264 
L 392.4 174.528 
L 381.24 174.528 
L 381.24 141.264 
" style="fill:#5470de;"/>
    <path clip-path="url(#p435fe9c710)" d="M 392.4 141.264 
L 403.56 141.264 
L 403.56 174.528 
L 392.4 174.528 
L 392.4 141.264 
" style="fill:#6384eb;"/>
    <path clip-path="url(#p435fe9c710)" d="M 403.56 141.264 
L 414.72 141.264 
L 414.72 174.528 
L 403.56 174.528 
L 403.56 141.264 
" style="fill:#6a8bef;"/>
    <path clip-path="url(#p435fe9c710)" d="M 57.6 174.528 
L 68.76 174.528 
L 68.76 207.792 
L 57.6 207.792 
L 57.6 174.528 
" style="fill:#445acc;"/>
    <path clip-path="url(#p435fe9c710)" d="M 68.76 174.528 
L 79.92 174.528 
L 79.92 207.792 
L 68.76 207.792 
L 68.76 174.528 
" style="fill:#a1c0ff;"/>
    <path clip-path="url(#p435fe9c710)" d="M 79.92 174.528 
L 91.08 174.528 
L 91.08 207.792 
L 79.92 207.792 
L 79.92 174.528 
" style="fill:#445acc;"/>
    <path clip-path="url(#p435fe9c710)" d="M 91.08 174.528 
L 102.24 174.528 
L 102.24 207.792 
L 91.08 207.792 
L 91.08 174.528 
" style="fill:#7ea1fa;"/>
    <path clip-path="url(#p435fe9c710)" d="M 102.24 174.528 
L 113.4 174.528 
L 113.4 207.792 
L 102.24 207.792 
L 102.24 174.528 
" style="fill:#b40426;"/>
    <path clip-path="url(#p435fe9c710)" d="M 113.4 174.528 
L 124.56 174.528 
L 124.56 207.792 
L 113.4 207.792 
L 113.4 174.528 
" style="fill:#485fd1;"/>
    <path clip-path="url(#p435fe9c710)" d="M 124.56 174.528 
L 135.72 174.528 
L 135.72 207.792 
L 124.56 207.792 
L 124.56 174.528 
" style="fill:#89acfd;"/>
    <path clip-path="url(#p435fe9c710)" d="M 135.72 174.528 
L 146.88 174.528 
L 146.88 207.792 
L 135.72 207.792 
L 135.72 174.528 
" style="fill:#4a63d3;"/>
    <path clip-path="url(#p435fe9c710)" d="M 146.88 174.528 
L 158.04 174.528 
L 158.04 207.792 
L 146.88 207.792 
L 146.88 174.528 
" style="fill:#94b6ff;"/>
    <path clip-path="url(#p435fe9c710)" d="M 158.04 174.528 
L 169.2 174.528 
L 169.2 207.792 
L 158.04 207.792 
L 158.04 174.528 
" style="fill:#b40426;"/>
    <path clip-path="url(#p435fe9c710)" d="M 169.2 174.528 
L 180.36 174.528 
L 180.36 207.792 
L 169.2 207.792 
L 169.2 174.528 
" style="fill:#5572df;"/>
    <path clip-path="url(#p435fe9c710)" d="M 180.36 174.528 
L 191.52 174.528 
L 191.52 207.792 
L 180.36 207.792 
L 180.36 174.528 
" style="fill:#4961d2;"/>
    <path clip-path="url(#p435fe9c710)" d="M 191.52 174.528 
L 202.68 174.528 
L 202.68 207.792 
L 191.52 207.792 
L 191.52 174.528 
" style="fill:#4c66d6;"/>
    <path clip-path="url(#p435fe9c710)" d="M 202.68 174.528 
L 213.84 174.528 
L 213.84 207.792 
L 202.68 207.792 
L 202.68 174.528 
" style="fill:#b40426;"/>
    <path clip-path="url(#p435fe9c710)" d="M 213.84 174.528 
L 225 174.528 
L 225 207.792 
L 213.84 207.792 
L 213.84 174.528 
" style="fill:#dbdcde;"/>
    <path clip-path="url(#p435fe9c710)" d="M 225 174.528 
L 236.16 174.528 
L 236.16 207.792 
L 225 207.792 
L 225 174.528 
" style="fill:#b2ccfb;"/>
    <path clip-path="url(#p435fe9c710)" d="M 236.16 174.528 
L 247.32 174.528 
L 247.32 207.792 
L 236.16 207.792 
L 236.16 174.528 
" style="fill:#6c8ff1;"/>
    <path clip-path="url(#p435fe9c710)" d="M 247.32 174.528 
L 258.48 174.528 
L 258.48 207.792 
L 247.32 207.792 
L 247.32 174.528 
" style="fill:#b40426;"/>
    <path clip-path="url(#p435fe9c710)" d="M 258.48 174.528 
L 269.64 174.528 
L 269.64 207.792 
L 258.48 207.792 
L 258.48 174.528 
" style="fill:#b40426;"/>
    <path clip-path="url(#p435fe9c710)" d="M 269.64 174.528 
L 280.8 174.528 
L 280.8 207.792 
L 269.64 207.792 
L 269.64 174.528 
" style="fill:#b40426;"/>
    <path clip-path="url(#p435fe9c710)" d="M 280.8 174.528 
L 291.96 174.528 
L 291.96 207.792 
L 280.8 207.792 
L 280.8 174.528 
" style="fill:#4e68d8;"/>
    <path clip-path="url(#p435fe9c710)" d="M 291.96 174.528 
L 303.12 174.528 
L 303.12 207.792 
L 291.96 207.792 
L 291.96 174.528 
" style="fill:#7093f3;"/>
    <path clip-path="url(#p435fe9c710)" d="M 303.12 174.528 
L 314.28 174.528 
L 314.28 207.792 
L 303.12 207.792 
L 303.12 174.528 
" style="fill:#b40426;"/>
    <path clip-path="url(#p435fe9c710)" d="M 314.28 174.528 
L 325.44 174.528 
L 325.44 207.792 
L 314.28 207.792 
L 314.28 174.528 
" style="fill:#465ecf;"/>
    <path clip-path="url(#p435fe9c710)" d="M 325.44 174.528 
L 336.6 174.528 
L 336.6 207.792 
L 325.44 207.792 
L 325.44 174.528 
" style="fill:#3d50c3;"/>
    <path clip-path="url(#p435fe9c710)" d="M 336.6 174.528 
L 347.76 174.528 
L 347.76 207.792 
L 336.6 207.792 
L 336.6 174.528 
" style="fill:#5572df;"/>
    <path clip-path="url(#p435fe9c710)" d="M 347.76 174.528 
L 358.92 174.528 
L 358.92 207.792 
L 347.76 207.792 
L 347.76 174.528 
" style="fill:#7396f5;"/>
    <path clip-path="url(#p435fe9c710)" d="M 358.92 174.528 
L 370.08 174.528 
L 370.08 207.792 
L 358.92 207.792 
L 358.92 174.528 
" style="fill:#485fd1;"/>
    <path clip-path="url(#p435fe9c710)" d="M 370.08 174.528 
L 381.24 174.528 
L 381.24 207.792 
L 370.08 207.792 
L 370.08 174.528 
" style="fill:#4055c8;"/>
    <path clip-path="url(#p435fe9c710)" d="M 381.24 174.528 
L 392.4 174.528 
L 392.4 207.792 
L 381.24 207.792 
L 381.24 174.528 
" style="fill:#b40426;"/>
    <path clip-path="url(#p435fe9c710)" d="M 392.4 174.528 
L 403.56 174.528 
L 403.56 207.792 
L 392.4 207.792 
L 392.4 174.528 
" style="fill:#afcafc;"/>
    <path clip-path="url(#p435fe9c710)" d="M 403.56 174.528 
L 414.72 174.528 
L 414.72 207.792 
L 403.56 207.792 
L 403.56 174.528 
" style="fill:#7b9ff9;"/>
    <path clip-path="url(#p435fe9c710)" d="M 57.6 207.792 
L 68.76 207.792 
L 68.76 241.056 
L 57.6 241.056 
L 57.6 207.792 
" style="fill:#3d50c3;"/>
    <path clip-path="url(#p435fe9c710)" d="M 68.76 207.792 
L 79.92 207.792 
L 79.92 241.056 
L 68.76 241.056 
L 68.76 207.792 
" style="fill:#b40426;"/>
    <path clip-path="url(#p435fe9c710)" d="M 79.92 207.792 
L 91.08 207.792 
L 91.08 241.056 
L 79.92 241.056 
L 79.92 207.792 
" style="fill:#3d50c3;"/>
    <path clip-path="url(#p435fe9c710)" d="M 91.08 207.792 
L 102.24 207.792 
L 102.24 241.056 
L 91.08 241.056 
L 91.08 207.792 
" style="fill:#7295f4;"/>
    <path clip-path="url(#p435fe9c710)" d="M 102.24 207.792 
L 113.4 207.792 
L 113.4 241.056 
L 102.24 241.056 
L 102.24 207.792 
" style="fill:#4e68d8;"/>
    <path clip-path="url(#p435fe9c710)" d="M 113.4 207.792 
L 124.56 207.792 
L 124.56 241.056 
L 113.4 241.056 
L 113.4 207.792 
" style="fill:#3c4ec2;"/>
    <path clip-path="url(#p435fe9c710)" d="M 124.56 207.792 
L 135.72 207.792 
L 135.72 241.056 
L 124.56 241.056 
L 124.56 207.792 
" style="fill:#b40426;"/>
    <path clip-path="url(#p435fe9c710)" d="M 135.72 207.792 
L 146.88 207.792 
L 146.88 241.056 
L 135.72 241.056 
L 135.72 207.792 
" style="fill:#3b4cc0;"/>
    <path clip-path="url(#p435fe9c710)" d="M 146.88 207.792 
L 158.04 207.792 
L 158.04 241.056 
L 146.88 241.056 
L 146.88 207.792 
" style="fill:#b40426;"/>
    <path clip-path="url(#p435fe9c710)" d="M 158.04 207.792 
L 169.2 207.792 
L 169.2 241.056 
L 158.04 241.056 
L 158.04 207.792 
" style="fill:#445acc;"/>
    <path clip-path="url(#p435fe9c710)" d="M 169.2 207.792 
L 180.36 207.792 
L 180.36 241.056 
L 169.2 241.056 
L 169.2 207.792 
" style="fill:#3f53c6;"/>
    <path clip-path="url(#p435fe9c710)" d="M 180.36 207.792 
L 191.52 207.792 
L 191.52 241.056 
L 180.36 241.056 
L 180.36 207.792 
" style="fill:#3d50c3;"/>
    <path clip-path="url(#p435fe9c710)" d="M 191.52 207.792 
L 202.68 207.792 
L 202.68 241.056 
L 191.52 241.056 
L 191.52 207.792 
" style="fill:#3e51c5;"/>
    <path clip-path="url(#p435fe9c710)" d="M 202.68 207.792 
L 213.84 207.792 
L 213.84 241.056 
L 202.68 241.056 
L 202.68 207.792 
" style="fill:#6384eb;"/>
    <path clip-path="url(#p435fe9c710)" d="M 213.84 207.792 
L 225 207.792 
L 225 241.056 
L 213.84 241.056 
L 213.84 207.792 
" style="fill:#b40426;"/>
    <path clip-path="url(#p435fe9c710)" d="M 225 207.792 
L 236.16 207.792 
L 236.16 241.056 
L 225 241.056 
L 225 207.792 
" style="fill:#b40426;"/>
    <path clip-path="url(#p435fe9c710)" d="M 236.16 207.792 
L 247.32 207.792 
L 247.32 241.056 
L 236.16 241.056 
L 236.16 207.792 
" style="fill:#3f53c6;"/>
    <path clip-path="url(#p435fe9c710)" d="M 247.32 207.792 
L 258.48 207.792 
L 258.48 241.056 
L 247.32 241.056 
L 247.32 207.792 
" style="fill:#b40426;"/>
    <path clip-path="url(#p435fe9c710)" d="M 258.48 207.792 
L 269.64 207.792 
L 269.64 241.056 
L 258.48 241.056 
L 258.48 207.792 
" style="fill:#cedaeb;"/>
    <path clip-path="url(#p435fe9c710)" d="M 269.64 207.792 
L 280.8 207.792 
L 280.8 241.056 
L 269.64 241.056 
L 269.64 207.792 
" style="fill:#b40426;"/>
    <path clip-path="url(#p435fe9c710)" d="M 280.8 207.792 
L 291.96 207.792 
L 291.96 241.056 
L 280.8 241.056 
L 280.8 207.792 
" style="fill:#3d50c3;"/>
    <path clip-path="url(#p435fe9c710)" d="M 291.96 207.792 
L 303.12 207.792 
L 303.12 241.056 
L 291.96 241.056 
L 291.96 207.792 
" style="fill:#5470de;"/>
    <path clip-path="url(#p435fe9c710)" d="M 303.12 207.792 
L 314.28 207.792 
L 314.28 241.056 
L 303.12 241.056 
L 303.12 207.792 
" style="fill:#8caffe;"/>
    <path clip-path="url(#p435fe9c710)" d="M 314.28 207.792 
L 325.44 207.792 
L 325.44 241.056 
L 314.28 241.056 
L 314.28 207.792 
" style="fill:#3c4ec2;"/>
    <path clip-path="url(#p435fe9c710)" d="M 325.44 207.792 
L 336.6 207.792 
L 336.6 241.056 
L 325.44 241.056 
L 325.44 207.792 
" style="fill:#3c4ec2;"/>
    <path clip-path="url(#p435fe9c710)" d="M 336.6 207.792 
L 347.76 207.792 
L 347.76 241.056 
L 336.6 241.056 
L 336.6 207.792 
" style="fill:#3b4cc0;"/>
    <path clip-path="url(#p435fe9c710)" d="M 347.76 207.792 
L 358.92 207.792 
L 358.92 241.056 
L 347.76 241.056 
L 347.76 207.792 
" style="fill:#4358cb;"/>
    <path clip-path="url(#p435fe9c710)" d="M 358.92 207.792 
L 370.08 207.792 
L 370.08 241.056 
L 358.92 241.056 
L 358.92 207.792 
" style="fill:#3c4ec2;"/>
    <path clip-path="url(#p435fe9c710)" d="M 370.08 207.792 
L 381.24 207.792 
L 381.24 241.056 
L 370.08 241.056 
L 370.08 207.792 
" style="fill:#4055c8;"/>
    <path clip-path="url(#p435fe9c710)" d="M 381.24 207.792 
L 392.4 207.792 
L 392.4 241.056 
L 381.24 241.056 
L 381.24 207.792 
" style="fill:#4961d2;"/>
    <path clip-path="url(#p435fe9c710)" d="M 392.4 207.792 
L 403.56 207.792 
L 403.56 241.056 
L 392.4 241.056 
L 392.4 207.792 
" style="fill:#b40426;"/>
    <path clip-path="url(#p435fe9c710)" d="M 403.56 207.792 
L 414.72 207.792 
L 414.72 241.056 
L 403.56 241.056 
L 403.56 207.792 
" style="fill:#b40426;"/>
    <path clip-path="url(#p435fe9c710)" d="M 57.6 241.056 
L 68.76 241.056 
L 68.76 274.32 
L 57.6 274.32 
L 57.6 241.056 
" style="fill:#3b4cc0;"/>
    <path clip-path="url(#p435fe9c710)" d="M 68.76 241.056 
L 79.92 241.056 
L 79.92 274.32 
L 68.76 274.32 
L 68.76 241.056 
" style="fill:#3b4cc0;"/>
    <path clip-path="url(#p435fe9c710)" d="M 79.92 241.056 
L 91.08 241.056 
L 91.08 274.32 
L 79.92 274.32 
L 79.92 241.056 
" style="fill:#3b4cc0;"/>
    <path clip-path="url(#p435fe9c710)" d="M 91.08 241.056 
L 102.24 241.056 
L 102.24 274.32 
L 91.08 274.32 
L 91.08 241.056 
" style="fill:#3c4ec2;"/>
    <path clip-path="url(#p435fe9c710)" d="M 102.24 241.056 
L 113.4 241.056 
L 113.4 274.32 
L 102.24 274.32 
L 102.24 241.056 
" style="fill:#3b4cc0;"/>
    <path clip-path="url(#p435fe9c710)" d="M 113.4 241.056 
L 124.56 241.056 
L 124.56 274.32 
L 113.4 274.32 
L 113.4 241.056 
" style="fill:#3b4cc0;"/>
    <path clip-path="url(#p435fe9c710)" d="M 124.56 241.056 
L 135.72 241.056 
L 135.72 274.32 
L 124.56 274.32 
L 124.56 241.056 
" style="fill:#3b4cc0;"/>
    <path clip-path="url(#p435fe9c710)" d="M 135.72 241.056 
L 146.88 241.056 
L 146.88 274.32 
L 135.72 274.32 
L 135.72 241.056 
" style="fill:#3b4cc0;"/>
    <path clip-path="url(#p435fe9c710)" d="M 146.88 241.056 
L 158.04 241.056 
L 158.04 274.32 
L 146.88 274.32 
L 146.88 241.056 
" style="fill:#3b4cc0;"/>
    <path clip-path="url(#p435fe9c710)" d="M 158.04 241.056 
L 169.2 241.056 
L 169.2 274.32 
L 158.04 274.32 
L 158.04 241.056 
" style="fill:#3b4cc0;"/>
    <path clip-path="url(#p435fe9c710)" d="M 169.2 241.056 
L 180.36 241.056 
L 180.36 274.32 
L 169.2 274.32 
L 169.2 241.056 
" style="fill:#3c4ec2;"/>
    <path clip-path="url(#p435fe9c710)" d="M 180.36 241.056 
L 191.52 241.056 
L 191.52 274.32 
L 180.36 274.32 
L 180.36 241.056 
" style="fill:#3b4cc0;"/>
    <path clip-path="url(#p435fe9c710)" d="M 191.52 241.056 
L 202.68 241.056 
L 202.68 274.32 
L 191.52 274.32 
L 191.52 241.056 
" style="fill:#3b4cc0;"/>
    <path clip-path="url(#p435fe9c710)" d="M 202.68 241.056 
L 213.84 241.056 
L 213.84 274.32 
L 202.68 274.32 
L 202.68 241.056 
" style="fill:#3b4cc0;"/>
    <path clip-path="url(#p435fe9c710)" d="M 213.84 241.056 
L 225 241.056 
L 225 274.32 
L 213.84 274.32 
L 213.84 241.056 
" style="fill:#3b4cc0;"/>
    <path clip-path="url(#p435fe9c710)" d="M 225 241.056 
L 236.16 241.056 
L 236.16 274.32 
L 225 274.32 
L 225 241.056 
" style="fill:#3b4cc0;"/>
    <path clip-path="url(#p435fe9c710)" d="M 236.16 241.056 
L 247.32 241.056 
L 247.32 274.32 
L 236.16 274.32 
L 236.16 241.056 
" style="fill:#3b4cc0;"/>
    <path clip-path="url(#p435fe9c710)" d="M 247.32 241.056 
L 258.48 241.056 
L 258.48 274.32 
L 247.32 274.32 
L 247.32 241.056 
" style="fill:#3b4cc0;"/>
    <path clip-path="url(#p435fe9c710)" d="M 258.48 241.056 
L 269.64 241.056 
L 269.64 274.32 
L 258.48 274.32 
L 258.48 241.056 
" style="fill:#455cce;"/>
    <path clip-path="url(#p435fe9c710)" d="M 269.64 241.056 
L 280.8 241.056 
L 280.8 274.32 
L 269.64 274.32 
L 269.64 241.056 
" style="fill:#3b4cc0;"/>
    <path clip-path="url(#p435fe9c710)" d="M 280.8 241.056 
L 291.96 241.056 
L 291.96 274.32 
L 280.8 274.32 
L 280.8 241.056 
" style="fill:#3b4cc0;"/>
    <path clip-path="url(#p435fe9c710)" d="M 291.96 241.056 
L 303.12 241.056 
L 303.12 274.32 
L 291.96 274.32 
L 291.96 241.056 
" style="fill:#3b4cc0;"/>
    <path clip-path="url(#p435fe9c710)" d="M 303.12 241.056 
L 314.28 241.056 
L 314.28 274.32 
L 303.12 274.32 
L 303.12 241.056 
" style="fill:#3b4cc0;"/>
    <path clip-path="url(#p435fe9c710)" d="M 314.28 241.056 
L 325.44 241.056 
L 325.44 274.32 
L 314.28 274.32 
L 314.28 241.056 
" style="fill:#3b4cc0;"/>
    <path clip-path="url(#p435fe9c710)" d="M 325.44 241.056 
L 336.6 241.056 
L 336.6 274.32 
L 325.44 274.32 
L 325.44 241.056 
" style="fill:#3b4cc0;"/>
    <path clip-path="url(#p435fe9c710)" d="M 336.6 241.056 
L 347.76 241.056 
L 347.76 274.32 
L 336.6 274.32 
L 336.6 241.056 
" style="fill:#3b4cc0;"/>
    <path clip-path="url(#p435fe9c710)" d="M 347.76 241.056 
L 358.92 241.056 
L 358.92 274.32 
L 347.76 274.32 
L 347.76 241.056 
" style="fill:#3b4cc0;"/>
    <path clip-path="url(#p435fe9c710)" d="M 358.92 241.056 
L 370.08 241.056 
L 370.08 274.32 
L 358.92 274.32 
L 358.92 241.056 
" style="fill:#3b4cc0;"/>
    <path clip-path="url(#p435fe9c710)" d="M 370.08 241.056 
L 381.24 241.056 
L 381.24 274.32 
L 370.08 274.32 
L 370.08 241.056 
" style="fill:#3b4cc0;"/>
    <path clip-path="url(#p435fe9c710)" d="M 381.24 241.056 
L 392.4 241.056 
L 392.4 274.32 
L 381.24 274.32 
L 381.24 241.056 
" style="fill:#3b4cc0;"/>
    <path clip-path="url(#p435fe9c710)" d="M 392.4 241.056 
L 403.56 241.056 
L 403.56 274.32 
L 392.4 274.32 
L 392.4 241.056 
" style="fill:#3b4cc0;"/>
    <path clip-path="url(#p435fe9c710)" d="M 403.56 241.056 
L 414.72 241.056 
L 414.72 274.32 
L 403.56 274.32 
L 403.56 241.056 
" style="fill:#3b4cc0;"/>
    <path clip-path="url(#p435fe9c710)" d="M 57.6 274.32 
L 68.76 274.32 
L 68.76 307.584 
L 57.6 307.584 
L 57.6 274.32 
" style="fill:#3b4cc0;"/>
    <path clip-path="url(#p435fe9c710)" d="M 68.76 274.32 
L 79.92 274.32 
L 79.92 307.584 
L 68.76 307.584 
L 68.76 274.32 
" style="fill:#3b4cc0;"/>
    <path clip-path="url(#p435fe9c710)" d="M 79.92 274.32 
L 91.08 274.32 
L 91.08 307.584 
L 79.92 307.584 
L 79.92 274.32 
" style="fill:#3b4cc0;"/>
    <path clip-path="url(#p435fe9c710)" d="M 91.08 274.32 
L 102.24 274.32 
L 102.24 307.584 
L 91.08 307.584 
L 91.08 274.32 
" style="fill:#3b4cc0;"/>
    <path clip-path="url(#p435fe9c710)" d="M 102.24 274.32 
L 113.4 274.32 
L 113.4 307.584 
L 102.24 307.584 
L 102.24 274.32 
" style="fill:#3b4cc0;"/>
    <path clip-path="url(#p435fe9c710)" d="M 113.4 274.32 
L 124.56 274.32 
L 124.56 307.584 
L 113.4 307.584 
L 113.4 274.32 
" style="fill:#3b4cc0;"/>
    <path clip-path="url(#p435fe9c710)" d="M 124.56 274.32 
L 135.72 274.32 
L 135.72 307.584 
L 124.56 307.584 
L 124.56 274.32 
" style="fill:#3b4cc0;"/>
    <path clip-path="url(#p435fe9c710)" d="M 135.72 274.32 
L 146.88 274.32 
L 146.88 307.584 
L 135.72 307.584 
L 135.72 274.32 
" style="fill:#3b4cc0;"/>
    <path clip-path="url(#p435fe9c710)" d="M 146.88 274.32 
L 158.04 274.32 
L 158.04 307.584 
L 146.88 307.584 
L 146.88 274.32 
" style="fill:#3b4cc0;"/>
    <path clip-path="url(#p435fe9c710)" d="M 158.04 274.32 
L 169.2 274.32 
L 169.2 307.584 
L 158.04 307.584 
L 158.04 274.32 
" style="fill:#3b4cc0;"/>
    <path clip-path="url(#p435fe9c710)" d="M 169.2 274.32 
L 180.36 274.32 
L 180.36 307.584 
L 169.2 307.584 
L 169.2 274.32 
" style="fill:#3b4cc0;"/>
    <path clip-path="url(#p435fe9c710)" d="M 180.36 274.32 
L 191.52 274.32 
L 191.52 307.584 
L 180.36 307.584 
L 180.36 274.32 
" style="fill:#3b4cc0;"/>
    <path clip-path="url(#p435fe9c710)" d="M 191.52 274.32 
L 202.68 274.32 
L 202.68 307.584 
L 191.52 307.584 
L 191.52 274.32 
" style="fill:#3b4cc0;"/>
    <path clip-path="url(#p435fe9c710)" d="M 202.68 274.32 
L 213.84 274.32 
L 213.84 307.584 
L 202.68 307.584 
L 202.68 274.32 
" style="fill:#3b4cc0;"/>
    <path clip-path="url(#p435fe9c710)" d="M 213.84 274.32 
L 225 274.32 
L 225 307.584 
L 213.84 307.584 
L 213.84 274.32 
" style="fill:#3b4cc0;"/>
    <path clip-path="url(#p435fe9c710)" d="M 225 274.32 
L 236.16 274.32 
L 236.16 307.584 
L 225 307.584 
L 225 274.32 
" style="fill:#3b4cc0;"/>
    <path clip-path="url(#p435fe9c710)" d="M 236.16 274.32 
L 247.32 274.32 
L 247.32 307.584 
L 236.16 307.584 
L 236.16 274.32 
" style="fill:#3b4cc0;"/>
    <path clip-path="url(#p435fe9c710)" d="M 247.32 274.32 
L 258.48 274.32 
L 258.48 307.584 
L 247.32 307.584 
L 247.32 274.32 
" style="fill:#3b4cc0;"/>
    <path clip-path="url(#p435fe9c710)" d="M 258.48 274.32 
L 269.64 274.32 
L 269.64 307.584 
L 258.48 307.584 
L 258.48 274.32 
" style="fill:#3b4cc0;"/>
    <path clip-path="url(#p435fe9c710)" d="M 269.64 274.32 
L 280.8 274.32 
L 280.8 307.584 
L 269.64 307.584 
L 269.64 274.32 
" style="fill:#3b4cc0;"/>
    <path clip-path="url(#p435fe9c710)" d="M 280.8 274.32 
L 291.96 274.32 
L 291.96 307.584 
L 280.8 307.584 
L 280.8 274.32 
" style="fill:#3b4cc0;"/>
    <path clip-path="url(#p435fe9c710)" d="M 291.96 274.32 
L 303.12 274.32 
L 303.12 307.584 
L 291.96 307.584 
L 291.96 274.32 
" style="fill:#3b4cc0;"/>
    <path clip-path="url(#p435fe9c710)" d="M 303.12 274.32 
L 314.28 274.32 
L 314.28 307.584 
L 303.12 307.584 
L 303.12 274.32 
" style="fill:#3b4cc0;"/>
    <path clip-path="url(#p435fe9c710)" d="M 314.28 274.32 
L 325.44 274.32 
L 325.44 307.584 
L 314.28 307.584 
L 314.28 274.32 
" style="fill:#3b4cc0;"/>
    <path clip-path="url(#p435fe9c710)" d="M 325.44 274.32 
L 336.6 274.32 
L 336.6 307.584 
L 325.44 307.584 
L 325.44 274.32 
" style="fill:#3b4cc0;"/>
    <path clip-path="url(#p435fe9c710)" d="M 336.6 274.32 
L 347.76 274.32 
L 347.76 307.584 
L 336.6 307.584 
L 336.6 274.32 
" style="fill:#3b4cc0;"/>
    <path clip-path="url(#p435fe9c710)" d="M 347.76 274.32 
L 358.92 274.32 
L 358.92 307.584 
L 347.76 307.584 
L 347.76 274.32 
" style="fill:#3b4cc0;"/>
    <path clip-path="url(#p435fe9c710)" d="M 358.92 274.32 
L 370.08 274.32 
L 370.08 307.584 
L 358.92 307.584 
L 358.92 274.32 
" style="fill:#3b4cc0;"/>
    <path clip-path="url(#p435fe9c710)" d="M 370.08 274.32 
L 381.24 274.32 
L 381.24 307.584 
L 370.08 307.584 
L 370.08 274.32 
" style="fill:#3b4cc0;"/>
    <path clip-path="url(#p435fe9c710)" d="M 381.24 274.32 
L 392.4 274.32 
L 392.4 307.584 
L 381.24 307.584 
L 381.24 274.32 
" style="fill:#3b4cc0;"/>
    <path clip-path="url(#p435fe9c710)" d="M 392.4 274.32 
L 403.56 274.32 
L 403.56 307.584 
L 392.4 307.584 
L 392.4 274.32 
" style="fill:#3b4cc0;"/>
    <path clip-path="url(#p435fe9c710)" d="M 403.56 274.32 
L 414.72 274.32 
L 414.72 307.584 
L 403.56 307.584 
L 403.56 274.32 
" style="fill:#3b4cc0;"/>
   </g>
   <g id="matplotlib.axis_1">
    <g id="xtick_1">
     <g id="line2d_1">
      <defs>
       <path d="M 0 0 
L 0 3.5 
" id="mf5b8eaba7c" style="stroke:#000000;stroke-width:0.8;"/>
      </defs>
      <g>
       <use style="stroke:#000000;stroke-width:0.8;" x="63.18" xlink:href="#mf5b8eaba7c" y="307.584"/>
      </g>
     </g>
     <g id="text_1">
      <!-- 0 -->
      <g transform="translate(65.939375 320.9465)rotate(-90)scale(0.1 -0.1)">
       <defs>
        <path d="M 31.78125 66.40625 
Q 24.171875 66.40625 20.328125 58.90625 
Q 16.5 51.421875 16.5 36.375 
Q 16.5 21.390625 20.328125 13.890625 
Q 24.171875 6.390625 31.78125 6.390625 
Q 39.453125 6.390625 43.28125 13.890625 
Q 47.125 21.390625 47.125 36.375 
Q 47.125 51.421875 43.28125 58.90625 
Q 39.453125 66.40625 31.78125 66.40625 
z
M 31.78125 74.21875 
Q 44.046875 74.21875 50.515625 64.515625 
Q 56.984375 54.828125 56.984375 36.375 
Q 56.984375 17.96875 50.515625 8.265625 
Q 44.046875 -1.421875 31.78125 -1.421875 
Q 19.53125 -1.421875 13.0625 8.265625 
Q 6.59375 17.96875 6.59375 36.375 
Q 6.59375 54.828125 13.0625 64.515625 
Q 19.53125 74.21875 31.78125 74.21875 
z
" id="DejaVuSans-48"/>
       </defs>
       <use xlink:href="#DejaVuSans-48"/>
      </g>
     </g>
    </g>
    <g id="xtick_2">
     <g id="line2d_2">
      <g>
       <use style="stroke:#000000;stroke-width:0.8;" x="74.34" xlink:href="#mf5b8eaba7c" y="307.584"/>
      </g>
     </g>
     <g id="text_2">
      <!-- 1 -->
      <g transform="translate(77.099375 320.9465)rotate(-90)scale(0.1 -0.1)">
       <defs>
        <path d="M 12.40625 8.296875 
L 28.515625 8.296875 
L 28.515625 63.921875 
L 10.984375 60.40625 
L 10.984375 69.390625 
L 28.421875 72.90625 
L 38.28125 72.90625 
L 38.28125 8.296875 
L 54.390625 8.296875 
L 54.390625 0 
L 12.40625 0 
z
" id="DejaVuSans-49"/>
       </defs>
       <use xlink:href="#DejaVuSans-49"/>
      </g>
     </g>
    </g>
    <g id="xtick_3">
     <g id="line2d_3">
      <g>
       <use style="stroke:#000000;stroke-width:0.8;" x="85.5" xlink:href="#mf5b8eaba7c" y="307.584"/>
      </g>
     </g>
     <g id="text_3">
      <!-- 2 -->
      <g transform="translate(88.259375 320.9465)rotate(-90)scale(0.1 -0.1)">
       <defs>
        <path d="M 19.1875 8.296875 
L 53.609375 8.296875 
L 53.609375 0 
L 7.328125 0 
L 7.328125 8.296875 
Q 12.9375 14.109375 22.625 23.890625 
Q 32.328125 33.6875 34.8125 36.53125 
Q 39.546875 41.84375 41.421875 45.53125 
Q 43.3125 49.21875 43.3125 52.78125 
Q 43.3125 58.59375 39.234375 62.25 
Q 35.15625 65.921875 28.609375 65.921875 
Q 23.96875 65.921875 18.8125 64.3125 
Q 13.671875 62.703125 7.8125 59.421875 
L 7.8125 69.390625 
Q 13.765625 71.78125 18.9375 73 
Q 24.125 74.21875 28.421875 74.21875 
Q 39.75 74.21875 46.484375 68.546875 
Q 53.21875 62.890625 53.21875 53.421875 
Q 53.21875 48.921875 51.53125 44.890625 
Q 49.859375 40.875 45.40625 35.40625 
Q 44.1875 33.984375 37.640625 27.21875 
Q 31.109375 20.453125 19.1875 8.296875 
z
" id="DejaVuSans-50"/>
       </defs>
       <use xlink:href="#DejaVuSans-50"/>
      </g>
     </g>
    </g>
    <g id="xtick_4">
     <g id="line2d_4">
      <g>
       <use style="stroke:#000000;stroke-width:0.8;" x="96.66" xlink:href="#mf5b8eaba7c" y="307.584"/>
      </g>
     </g>
     <g id="text_4">
      <!-- 3 -->
      <g transform="translate(99.419375 320.9465)rotate(-90)scale(0.1 -0.1)">
       <defs>
        <path d="M 40.578125 39.3125 
Q 47.65625 37.796875 51.625 33 
Q 55.609375 28.21875 55.609375 21.1875 
Q 55.609375 10.40625 48.1875 4.484375 
Q 40.765625 -1.421875 27.09375 -1.421875 
Q 22.515625 -1.421875 17.65625 -0.515625 
Q 12.796875 0.390625 7.625 2.203125 
L 7.625 11.71875 
Q 11.71875 9.328125 16.59375 8.109375 
Q 21.484375 6.890625 26.8125 6.890625 
Q 36.078125 6.890625 40.9375 10.546875 
Q 45.796875 14.203125 45.796875 21.1875 
Q 45.796875 27.640625 41.28125 31.265625 
Q 36.765625 34.90625 28.71875 34.90625 
L 20.21875 34.90625 
L 20.21875 43.015625 
L 29.109375 43.015625 
Q 36.375 43.015625 40.234375 45.921875 
Q 44.09375 48.828125 44.09375 54.296875 
Q 44.09375 59.90625 40.109375 62.90625 
Q 36.140625 65.921875 28.71875 65.921875 
Q 24.65625 65.921875 20.015625 65.03125 
Q 15.375 64.15625 9.8125 62.3125 
L 9.8125 71.09375 
Q 15.4375 72.65625 20.34375 73.4375 
Q 25.25 74.21875 29.59375 74.21875 
Q 40.828125 74.21875 47.359375 69.109375 
Q 53.90625 64.015625 53.90625 55.328125 
Q 53.90625 49.265625 50.4375 45.09375 
Q 46.96875 40.921875 40.578125 39.3125 
z
" id="DejaVuSans-51"/>
       </defs>
       <use xlink:href="#DejaVuSans-51"/>
      </g>
     </g>
    </g>
    <g id="xtick_5">
     <g id="line2d_5">
      <g>
       <use style="stroke:#000000;stroke-width:0.8;" x="107.82" xlink:href="#mf5b8eaba7c" y="307.584"/>
      </g>
     </g>
     <g id="text_5">
      <!-- 4 -->
      <g transform="translate(110.579375 320.9465)rotate(-90)scale(0.1 -0.1)">
       <defs>
        <path d="M 37.796875 64.3125 
L 12.890625 25.390625 
L 37.796875 25.390625 
z
M 35.203125 72.90625 
L 47.609375 72.90625 
L 47.609375 25.390625 
L 58.015625 25.390625 
L 58.015625 17.1875 
L 47.609375 17.1875 
L 47.609375 0 
L 37.796875 0 
L 37.796875 17.1875 
L 4.890625 17.1875 
L 4.890625 26.703125 
z
" id="DejaVuSans-52"/>
       </defs>
       <use xlink:href="#DejaVuSans-52"/>
      </g>
     </g>
    </g>
    <g id="xtick_6">
     <g id="line2d_6">
      <g>
       <use style="stroke:#000000;stroke-width:0.8;" x="118.98" xlink:href="#mf5b8eaba7c" y="307.584"/>
      </g>
     </g>
     <g id="text_6">
      <!-- 5 -->
      <g transform="translate(121.739375 320.9465)rotate(-90)scale(0.1 -0.1)">
       <defs>
        <path d="M 10.796875 72.90625 
L 49.515625 72.90625 
L 49.515625 64.59375 
L 19.828125 64.59375 
L 19.828125 46.734375 
Q 21.96875 47.46875 24.109375 47.828125 
Q 26.265625 48.1875 28.421875 48.1875 
Q 40.625 48.1875 47.75 41.5 
Q 54.890625 34.8125 54.890625 23.390625 
Q 54.890625 11.625 47.5625 5.09375 
Q 40.234375 -1.421875 26.90625 -1.421875 
Q 22.3125 -1.421875 17.546875 -0.640625 
Q 12.796875 0.140625 7.71875 1.703125 
L 7.71875 11.625 
Q 12.109375 9.234375 16.796875 8.0625 
Q 21.484375 6.890625 26.703125 6.890625 
Q 35.15625 6.890625 40.078125 11.328125 
Q 45.015625 15.765625 45.015625 23.390625 
Q 45.015625 31 40.078125 35.4375 
Q 35.15625 39.890625 26.703125 39.890625 
Q 22.75 39.890625 18.8125 39.015625 
Q 14.890625 38.140625 10.796875 36.28125 
z
" id="DejaVuSans-53"/>
       </defs>
       <use xlink:href="#DejaVuSans-53"/>
      </g>
     </g>
    </g>
    <g id="xtick_7">
     <g id="line2d_7">
      <g>
       <use style="stroke:#000000;stroke-width:0.8;" x="130.14" xlink:href="#mf5b8eaba7c" y="307.584"/>
      </g>
     </g>
     <g id="text_7">
      <!-- 6 -->
      <g transform="translate(132.899375 320.9465)rotate(-90)scale(0.1 -0.1)">
       <defs>
        <path d="M 33.015625 40.375 
Q 26.375 40.375 22.484375 35.828125 
Q 18.609375 31.296875 18.609375 23.390625 
Q 18.609375 15.53125 22.484375 10.953125 
Q 26.375 6.390625 33.015625 6.390625 
Q 39.65625 6.390625 43.53125 10.953125 
Q 47.40625 15.53125 47.40625 23.390625 
Q 47.40625 31.296875 43.53125 35.828125 
Q 39.65625 40.375 33.015625 40.375 
z
M 52.59375 71.296875 
L 52.59375 62.3125 
Q 48.875 64.0625 45.09375 64.984375 
Q 41.3125 65.921875 37.59375 65.921875 
Q 27.828125 65.921875 22.671875 59.328125 
Q 17.53125 52.734375 16.796875 39.40625 
Q 19.671875 43.65625 24.015625 45.921875 
Q 28.375 48.1875 33.59375 48.1875 
Q 44.578125 48.1875 50.953125 41.515625 
Q 57.328125 34.859375 57.328125 23.390625 
Q 57.328125 12.15625 50.6875 5.359375 
Q 44.046875 -1.421875 33.015625 -1.421875 
Q 20.359375 -1.421875 13.671875 8.265625 
Q 6.984375 17.96875 6.984375 36.375 
Q 6.984375 53.65625 15.1875 63.9375 
Q 23.390625 74.21875 37.203125 74.21875 
Q 40.921875 74.21875 44.703125 73.484375 
Q 48.484375 72.75 52.59375 71.296875 
z
" id="DejaVuSans-54"/>
       </defs>
       <use xlink:href="#DejaVuSans-54"/>
      </g>
     </g>
    </g>
    <g id="xtick_8">
     <g id="line2d_8">
      <g>
       <use style="stroke:#000000;stroke-width:0.8;" x="141.3" xlink:href="#mf5b8eaba7c" y="307.584"/>
      </g>
     </g>
     <g id="text_8">
      <!-- 7 -->
      <g transform="translate(144.059375 320.9465)rotate(-90)scale(0.1 -0.1)">
       <defs>
        <path d="M 8.203125 72.90625 
L 55.078125 72.90625 
L 55.078125 68.703125 
L 28.609375 0 
L 18.3125 0 
L 43.21875 64.59375 
L 8.203125 64.59375 
z
" id="DejaVuSans-55"/>
       </defs>
       <use xlink:href="#DejaVuSans-55"/>
      </g>
     </g>
    </g>
    <g id="xtick_9">
     <g id="line2d_9">
      <g>
       <use style="stroke:#000000;stroke-width:0.8;" x="152.46" xlink:href="#mf5b8eaba7c" y="307.584"/>
      </g>
     </g>
     <g id="text_9">
      <!-- 8 -->
      <g transform="translate(155.219375 320.9465)rotate(-90)scale(0.1 -0.1)">
       <defs>
        <path d="M 31.78125 34.625 
Q 24.75 34.625 20.71875 30.859375 
Q 16.703125 27.09375 16.703125 20.515625 
Q 16.703125 13.921875 20.71875 10.15625 
Q 24.75 6.390625 31.78125 6.390625 
Q 38.8125 6.390625 42.859375 10.171875 
Q 46.921875 13.96875 46.921875 20.515625 
Q 46.921875 27.09375 42.890625 30.859375 
Q 38.875 34.625 31.78125 34.625 
z
M 21.921875 38.8125 
Q 15.578125 40.375 12.03125 44.71875 
Q 8.5 49.078125 8.5 55.328125 
Q 8.5 64.0625 14.71875 69.140625 
Q 20.953125 74.21875 31.78125 74.21875 
Q 42.671875 74.21875 48.875 69.140625 
Q 55.078125 64.0625 55.078125 55.328125 
Q 55.078125 49.078125 51.53125 44.71875 
Q 48 40.375 41.703125 38.8125 
Q 48.828125 37.15625 52.796875 32.3125 
Q 56.78125 27.484375 56.78125 20.515625 
Q 56.78125 9.90625 50.3125 4.234375 
Q 43.84375 -1.421875 31.78125 -1.421875 
Q 19.734375 -1.421875 13.25 4.234375 
Q 6.78125 9.90625 6.78125 20.515625 
Q 6.78125 27.484375 10.78125 32.3125 
Q 14.796875 37.15625 21.921875 38.8125 
z
M 18.3125 54.390625 
Q 18.3125 48.734375 21.84375 45.5625 
Q 25.390625 42.390625 31.78125 42.390625 
Q 38.140625 42.390625 41.71875 45.5625 
Q 45.3125 48.734375 45.3125 54.390625 
Q 45.3125 60.0625 41.71875 63.234375 
Q 38.140625 66.40625 31.78125 66.40625 
Q 25.390625 66.40625 21.84375 63.234375 
Q 18.3125 60.0625 18.3125 54.390625 
z
" id="DejaVuSans-56"/>
       </defs>
       <use xlink:href="#DejaVuSans-56"/>
      </g>
     </g>
    </g>
    <g id="xtick_10">
     <g id="line2d_10">
      <g>
       <use style="stroke:#000000;stroke-width:0.8;" x="163.62" xlink:href="#mf5b8eaba7c" y="307.584"/>
      </g>
     </g>
     <g id="text_10">
      <!-- 9 -->
      <g transform="translate(166.379375 320.9465)rotate(-90)scale(0.1 -0.1)">
       <defs>
        <path d="M 10.984375 1.515625 
L 10.984375 10.5 
Q 14.703125 8.734375 18.5 7.8125 
Q 22.3125 6.890625 25.984375 6.890625 
Q 35.75 6.890625 40.890625 13.453125 
Q 46.046875 20.015625 46.78125 33.40625 
Q 43.953125 29.203125 39.59375 26.953125 
Q 35.25 24.703125 29.984375 24.703125 
Q 19.046875 24.703125 12.671875 31.3125 
Q 6.296875 37.9375 6.296875 49.421875 
Q 6.296875 60.640625 12.9375 67.421875 
Q 19.578125 74.21875 30.609375 74.21875 
Q 43.265625 74.21875 49.921875 64.515625 
Q 56.59375 54.828125 56.59375 36.375 
Q 56.59375 19.140625 48.40625 8.859375 
Q 40.234375 -1.421875 26.421875 -1.421875 
Q 22.703125 -1.421875 18.890625 -0.6875 
Q 15.09375 0.046875 10.984375 1.515625 
z
M 30.609375 32.421875 
Q 37.25 32.421875 41.125 36.953125 
Q 45.015625 41.5 45.015625 49.421875 
Q 45.015625 57.28125 41.125 61.84375 
Q 37.25 66.40625 30.609375 66.40625 
Q 23.96875 66.40625 20.09375 61.84375 
Q 16.21875 57.28125 16.21875 49.421875 
Q 16.21875 41.5 20.09375 36.953125 
Q 23.96875 32.421875 30.609375 32.421875 
z
" id="DejaVuSans-57"/>
       </defs>
       <use xlink:href="#DejaVuSans-57"/>
      </g>
     </g>
    </g>
    <g id="xtick_11">
     <g id="line2d_11">
      <g>
       <use style="stroke:#000000;stroke-width:0.8;" x="174.78" xlink:href="#mf5b8eaba7c" y="307.584"/>
      </g>
     </g>
     <g id="text_11">
      <!-- 10 -->
      <g transform="translate(177.539375 327.309)rotate(-90)scale(0.1 -0.1)">
       <use xlink:href="#DejaVuSans-49"/>
       <use x="63.623047" xlink:href="#DejaVuSans-48"/>
      </g>
     </g>
    </g>
    <g id="xtick_12">
     <g id="line2d_12">
      <g>
       <use style="stroke:#000000;stroke-width:0.8;" x="185.94" xlink:href="#mf5b8eaba7c" y="307.584"/>
      </g>
     </g>
     <g id="text_12">
      <!-- 11 -->
      <g transform="translate(188.699375 327.309)rotate(-90)scale(0.1 -0.1)">
       <use xlink:href="#DejaVuSans-49"/>
       <use x="63.623047" xlink:href="#DejaVuSans-49"/>
      </g>
     </g>
    </g>
    <g id="xtick_13">
     <g id="line2d_13">
      <g>
       <use style="stroke:#000000;stroke-width:0.8;" x="197.1" xlink:href="#mf5b8eaba7c" y="307.584"/>
      </g>
     </g>
     <g id="text_13">
      <!-- 12 -->
      <g transform="translate(199.859375 327.309)rotate(-90)scale(0.1 -0.1)">
       <use xlink:href="#DejaVuSans-49"/>
       <use x="63.623047" xlink:href="#DejaVuSans-50"/>
      </g>
     </g>
    </g>
    <g id="xtick_14">
     <g id="line2d_14">
      <g>
       <use style="stroke:#000000;stroke-width:0.8;" x="208.26" xlink:href="#mf5b8eaba7c" y="307.584"/>
      </g>
     </g>
     <g id="text_14">
      <!-- 13 -->
      <g transform="translate(211.019375 327.309)rotate(-90)scale(0.1 -0.1)">
       <use xlink:href="#DejaVuSans-49"/>
       <use x="63.623047" xlink:href="#DejaVuSans-51"/>
      </g>
     </g>
    </g>
    <g id="xtick_15">
     <g id="line2d_15">
      <g>
       <use style="stroke:#000000;stroke-width:0.8;" x="219.42" xlink:href="#mf5b8eaba7c" y="307.584"/>
      </g>
     </g>
     <g id="text_15">
      <!-- 14 -->
      <g transform="translate(222.179375 327.309)rotate(-90)scale(0.1 -0.1)">
       <use xlink:href="#DejaVuSans-49"/>
       <use x="63.623047" xlink:href="#DejaVuSans-52"/>
      </g>
     </g>
    </g>
    <g id="xtick_16">
     <g id="line2d_16">
      <g>
       <use style="stroke:#000000;stroke-width:0.8;" x="230.58" xlink:href="#mf5b8eaba7c" y="307.584"/>
      </g>
     </g>
     <g id="text_16">
      <!-- 15 -->
      <g transform="translate(233.339375 327.309)rotate(-90)scale(0.1 -0.1)">
       <use xlink:href="#DejaVuSans-49"/>
       <use x="63.623047" xlink:href="#DejaVuSans-53"/>
      </g>
     </g>
    </g>
    <g id="xtick_17">
     <g id="line2d_17">
      <g>
       <use style="stroke:#000000;stroke-width:0.8;" x="241.74" xlink:href="#mf5b8eaba7c" y="307.584"/>
      </g>
     </g>
     <g id="text_17">
      <!-- 16 -->
      <g transform="translate(244.499375 327.309)rotate(-90)scale(0.1 -0.1)">
       <use xlink:href="#DejaVuSans-49"/>
       <use x="63.623047" xlink:href="#DejaVuSans-54"/>
      </g>
     </g>
    </g>
    <g id="xtick_18">
     <g id="line2d_18">
      <g>
       <use style="stroke:#000000;stroke-width:0.8;" x="252.9" xlink:href="#mf5b8eaba7c" y="307.584"/>
      </g>
     </g>
     <g id="text_18">
      <!-- 17 -->
      <g transform="translate(255.659375 327.309)rotate(-90)scale(0.1 -0.1)">
       <use xlink:href="#DejaVuSans-49"/>
       <use x="63.623047" xlink:href="#DejaVuSans-55"/>
      </g>
     </g>
    </g>
    <g id="xtick_19">
     <g id="line2d_19">
      <g>
       <use style="stroke:#000000;stroke-width:0.8;" x="264.06" xlink:href="#mf5b8eaba7c" y="307.584"/>
      </g>
     </g>
     <g id="text_19">
      <!-- 18 -->
      <g transform="translate(266.819375 327.309)rotate(-90)scale(0.1 -0.1)">
       <use xlink:href="#DejaVuSans-49"/>
       <use x="63.623047" xlink:href="#DejaVuSans-56"/>
      </g>
     </g>
    </g>
    <g id="xtick_20">
     <g id="line2d_20">
      <g>
       <use style="stroke:#000000;stroke-width:0.8;" x="275.22" xlink:href="#mf5b8eaba7c" y="307.584"/>
      </g>
     </g>
     <g id="text_20">
      <!-- 19 -->
      <g transform="translate(277.979375 327.309)rotate(-90)scale(0.1 -0.1)">
       <use xlink:href="#DejaVuSans-49"/>
       <use x="63.623047" xlink:href="#DejaVuSans-57"/>
      </g>
     </g>
    </g>
    <g id="xtick_21">
     <g id="line2d_21">
      <g>
       <use style="stroke:#000000;stroke-width:0.8;" x="286.38" xlink:href="#mf5b8eaba7c" y="307.584"/>
      </g>
     </g>
     <g id="text_21">
      <!-- 20 -->
      <g transform="translate(289.139375 327.309)rotate(-90)scale(0.1 -0.1)">
       <use xlink:href="#DejaVuSans-50"/>
       <use x="63.623047" xlink:href="#DejaVuSans-48"/>
      </g>
     </g>
    </g>
    <g id="xtick_22">
     <g id="line2d_22">
      <g>
       <use style="stroke:#000000;stroke-width:0.8;" x="297.54" xlink:href="#mf5b8eaba7c" y="307.584"/>
      </g>
     </g>
     <g id="text_22">
      <!-- 21 -->
      <g transform="translate(300.299375 327.309)rotate(-90)scale(0.1 -0.1)">
       <use xlink:href="#DejaVuSans-50"/>
       <use x="63.623047" xlink:href="#DejaVuSans-49"/>
      </g>
     </g>
    </g>
    <g id="xtick_23">
     <g id="line2d_23">
      <g>
       <use style="stroke:#000000;stroke-width:0.8;" x="308.7" xlink:href="#mf5b8eaba7c" y="307.584"/>
      </g>
     </g>
     <g id="text_23">
      <!-- 22 -->
      <g transform="translate(311.459375 327.309)rotate(-90)scale(0.1 -0.1)">
       <use xlink:href="#DejaVuSans-50"/>
       <use x="63.623047" xlink:href="#DejaVuSans-50"/>
      </g>
     </g>
    </g>
    <g id="xtick_24">
     <g id="line2d_24">
      <g>
       <use style="stroke:#000000;stroke-width:0.8;" x="319.86" xlink:href="#mf5b8eaba7c" y="307.584"/>
      </g>
     </g>
     <g id="text_24">
      <!-- 23 -->
      <g transform="translate(322.619375 327.309)rotate(-90)scale(0.1 -0.1)">
       <use xlink:href="#DejaVuSans-50"/>
       <use x="63.623047" xlink:href="#DejaVuSans-51"/>
      </g>
     </g>
    </g>
    <g id="xtick_25">
     <g id="line2d_25">
      <g>
       <use style="stroke:#000000;stroke-width:0.8;" x="331.02" xlink:href="#mf5b8eaba7c" y="307.584"/>
      </g>
     </g>
     <g id="text_25">
      <!-- 24 -->
      <g transform="translate(333.779375 327.309)rotate(-90)scale(0.1 -0.1)">
       <use xlink:href="#DejaVuSans-50"/>
       <use x="63.623047" xlink:href="#DejaVuSans-52"/>
      </g>
     </g>
    </g>
    <g id="xtick_26">
     <g id="line2d_26">
      <g>
       <use style="stroke:#000000;stroke-width:0.8;" x="342.18" xlink:href="#mf5b8eaba7c" y="307.584"/>
      </g>
     </g>
     <g id="text_26">
      <!-- 25 -->
      <g transform="translate(344.939375 327.309)rotate(-90)scale(0.1 -0.1)">
       <use xlink:href="#DejaVuSans-50"/>
       <use x="63.623047" xlink:href="#DejaVuSans-53"/>
      </g>
     </g>
    </g>
    <g id="xtick_27">
     <g id="line2d_27">
      <g>
       <use style="stroke:#000000;stroke-width:0.8;" x="353.34" xlink:href="#mf5b8eaba7c" y="307.584"/>
      </g>
     </g>
     <g id="text_27">
      <!-- 26 -->
      <g transform="translate(356.099375 327.309)rotate(-90)scale(0.1 -0.1)">
       <use xlink:href="#DejaVuSans-50"/>
       <use x="63.623047" xlink:href="#DejaVuSans-54"/>
      </g>
     </g>
    </g>
    <g id="xtick_28">
     <g id="line2d_28">
      <g>
       <use style="stroke:#000000;stroke-width:0.8;" x="364.5" xlink:href="#mf5b8eaba7c" y="307.584"/>
      </g>
     </g>
     <g id="text_28">
      <!-- 27 -->
      <g transform="translate(367.259375 327.309)rotate(-90)scale(0.1 -0.1)">
       <use xlink:href="#DejaVuSans-50"/>
       <use x="63.623047" xlink:href="#DejaVuSans-55"/>
      </g>
     </g>
    </g>
    <g id="xtick_29">
     <g id="line2d_29">
      <g>
       <use style="stroke:#000000;stroke-width:0.8;" x="375.66" xlink:href="#mf5b8eaba7c" y="307.584"/>
      </g>
     </g>
     <g id="text_29">
      <!-- 28 -->
      <g transform="translate(378.419375 327.309)rotate(-90)scale(0.1 -0.1)">
       <use xlink:href="#DejaVuSans-50"/>
       <use x="63.623047" xlink:href="#DejaVuSans-56"/>
      </g>
     </g>
    </g>
    <g id="xtick_30">
     <g id="line2d_30">
      <g>
       <use style="stroke:#000000;stroke-width:0.8;" x="386.82" xlink:href="#mf5b8eaba7c" y="307.584"/>
      </g>
     </g>
     <g id="text_30">
      <!-- 29 -->
      <g transform="translate(389.579375 327.309)rotate(-90)scale(0.1 -0.1)">
       <use xlink:href="#DejaVuSans-50"/>
       <use x="63.623047" xlink:href="#DejaVuSans-57"/>
      </g>
     </g>
    </g>
    <g id="xtick_31">
     <g id="line2d_31">
      <g>
       <use style="stroke:#000000;stroke-width:0.8;" x="397.98" xlink:href="#mf5b8eaba7c" y="307.584"/>
      </g>
     </g>
     <g id="text_31">
      <!-- 30 -->
      <g transform="translate(400.739375 327.309)rotate(-90)scale(0.1 -0.1)">
       <use xlink:href="#DejaVuSans-51"/>
       <use x="63.623047" xlink:href="#DejaVuSans-48"/>
      </g>
     </g>
    </g>
    <g id="xtick_32">
     <g id="line2d_32">
      <g>
       <use style="stroke:#000000;stroke-width:0.8;" x="409.14" xlink:href="#mf5b8eaba7c" y="307.584"/>
      </g>
     </g>
     <g id="text_32">
      <!-- 31 -->
      <g transform="translate(411.899375 327.309)rotate(-90)scale(0.1 -0.1)">
       <use xlink:href="#DejaVuSans-51"/>
       <use x="63.623047" xlink:href="#DejaVuSans-49"/>
      </g>
     </g>
    </g>
    <g id="text_33">
     <!-- Characteristics -->
     <g transform="translate(198.777969 338.907437)scale(0.1 -0.1)">
      <defs>
       <path d="M 64.40625 67.28125 
L 64.40625 56.890625 
Q 59.421875 61.53125 53.78125 63.8125 
Q 48.140625 66.109375 41.796875 66.109375 
Q 29.296875 66.109375 22.65625 58.46875 
Q 16.015625 50.828125 16.015625 36.375 
Q 16.015625 21.96875 22.65625 14.328125 
Q 29.296875 6.6875 41.796875 6.6875 
Q 48.140625 6.6875 53.78125 8.984375 
Q 59.421875 11.28125 64.40625 15.921875 
L 64.40625 5.609375 
Q 59.234375 2.09375 53.4375 0.328125 
Q 47.65625 -1.421875 41.21875 -1.421875 
Q 24.65625 -1.421875 15.125 8.703125 
Q 5.609375 18.84375 5.609375 36.375 
Q 5.609375 53.953125 15.125 64.078125 
Q 24.65625 74.21875 41.21875 74.21875 
Q 47.75 74.21875 53.53125 72.484375 
Q 59.328125 70.75 64.40625 67.28125 
z
" id="DejaVuSans-67"/>
       <path d="M 54.890625 33.015625 
L 54.890625 0 
L 45.90625 0 
L 45.90625 32.71875 
Q 45.90625 40.484375 42.875 44.328125 
Q 39.84375 48.1875 33.796875 48.1875 
Q 26.515625 48.1875 22.3125 43.546875 
Q 18.109375 38.921875 18.109375 30.90625 
L 18.109375 0 
L 9.078125 0 
L 9.078125 75.984375 
L 18.109375 75.984375 
L 18.109375 46.1875 
Q 21.34375 51.125 25.703125 53.5625 
Q 30.078125 56 35.796875 56 
Q 45.21875 56 50.046875 50.171875 
Q 54.890625 44.34375 54.890625 33.015625 
z
" id="DejaVuSans-104"/>
       <path d="M 34.28125 27.484375 
Q 23.390625 27.484375 19.1875 25 
Q 14.984375 22.515625 14.984375 16.5 
Q 14.984375 11.71875 18.140625 8.90625 
Q 21.296875 6.109375 26.703125 6.109375 
Q 34.1875 6.109375 38.703125 11.40625 
Q 43.21875 16.703125 43.21875 25.484375 
L 43.21875 27.484375 
z
M 52.203125 31.203125 
L 52.203125 0 
L 43.21875 0 
L 43.21875 8.296875 
Q 40.140625 3.328125 35.546875 0.953125 
Q 30.953125 -1.421875 24.3125 -1.421875 
Q 15.921875 -1.421875 10.953125 3.296875 
Q 6 8.015625 6 15.921875 
Q 6 25.140625 12.171875 29.828125 
Q 18.359375 34.515625 30.609375 34.515625 
L 43.21875 34.515625 
L 43.21875 35.40625 
Q 43.21875 41.609375 39.140625 45 
Q 35.0625 48.390625 27.6875 48.390625 
Q 23 48.390625 18.546875 47.265625 
Q 14.109375 46.140625 10.015625 43.890625 
L 10.015625 52.203125 
Q 14.9375 54.109375 19.578125 55.046875 
Q 24.21875 56 28.609375 56 
Q 40.484375 56 46.34375 49.84375 
Q 52.203125 43.703125 52.203125 31.203125 
z
" id="DejaVuSans-97"/>
       <path d="M 41.109375 46.296875 
Q 39.59375 47.171875 37.8125 47.578125 
Q 36.03125 48 33.890625 48 
Q 26.265625 48 22.1875 43.046875 
Q 18.109375 38.09375 18.109375 28.8125 
L 18.109375 0 
L 9.078125 0 
L 9.078125 54.6875 
L 18.109375 54.6875 
L 18.109375 46.1875 
Q 20.953125 51.171875 25.484375 53.578125 
Q 30.03125 56 36.53125 56 
Q 37.453125 56 38.578125 55.875 
Q 39.703125 55.765625 41.0625 55.515625 
z
" id="DejaVuSans-114"/>
       <path d="M 48.78125 52.59375 
L 48.78125 44.1875 
Q 44.96875 46.296875 41.140625 47.34375 
Q 37.3125 48.390625 33.40625 48.390625 
Q 24.65625 48.390625 19.8125 42.84375 
Q 14.984375 37.3125 14.984375 27.296875 
Q 14.984375 17.28125 19.8125 11.734375 
Q 24.65625 6.203125 33.40625 6.203125 
Q 37.3125 6.203125 41.140625 7.25 
Q 44.96875 8.296875 48.78125 10.40625 
L 48.78125 2.09375 
Q 45.015625 0.34375 40.984375 -0.53125 
Q 36.96875 -1.421875 32.421875 -1.421875 
Q 20.0625 -1.421875 12.78125 6.34375 
Q 5.515625 14.109375 5.515625 27.296875 
Q 5.515625 40.671875 12.859375 48.328125 
Q 20.21875 56 33.015625 56 
Q 37.15625 56 41.109375 55.140625 
Q 45.0625 54.296875 48.78125 52.59375 
z
" id="DejaVuSans-99"/>
       <path d="M 18.3125 70.21875 
L 18.3125 54.6875 
L 36.8125 54.6875 
L 36.8125 47.703125 
L 18.3125 47.703125 
L 18.3125 18.015625 
Q 18.3125 11.328125 20.140625 9.421875 
Q 21.96875 7.515625 27.59375 7.515625 
L 36.8125 7.515625 
L 36.8125 0 
L 27.59375 0 
Q 17.1875 0 13.234375 3.875 
Q 9.28125 7.765625 9.28125 18.015625 
L 9.28125 47.703125 
L 2.6875 47.703125 
L 2.6875 54.6875 
L 9.28125 54.6875 
L 9.28125 70.21875 
z
" id="DejaVuSans-116"/>
       <path d="M 56.203125 29.59375 
L 56.203125 25.203125 
L 14.890625 25.203125 
Q 15.484375 15.921875 20.484375 11.0625 
Q 25.484375 6.203125 34.421875 6.203125 
Q 39.59375 6.203125 44.453125 7.46875 
Q 49.3125 8.734375 54.109375 11.28125 
L 54.109375 2.78125 
Q 49.265625 0.734375 44.1875 -0.34375 
Q 39.109375 -1.421875 33.890625 -1.421875 
Q 20.796875 -1.421875 13.15625 6.1875 
Q 5.515625 13.8125 5.515625 26.8125 
Q 5.515625 40.234375 12.765625 48.109375 
Q 20.015625 56 32.328125 56 
Q 43.359375 56 49.78125 48.890625 
Q 56.203125 41.796875 56.203125 29.59375 
z
M 47.21875 32.234375 
Q 47.125 39.59375 43.09375 43.984375 
Q 39.0625 48.390625 32.421875 48.390625 
Q 24.90625 48.390625 20.390625 44.140625 
Q 15.875 39.890625 15.1875 32.171875 
z
" id="DejaVuSans-101"/>
       <path d="M 9.421875 54.6875 
L 18.40625 54.6875 
L 18.40625 0 
L 9.421875 0 
z
M 9.421875 75.984375 
L 18.40625 75.984375 
L 18.40625 64.59375 
L 9.421875 64.59375 
z
" id="DejaVuSans-105"/>
       <path d="M 44.28125 53.078125 
L 44.28125 44.578125 
Q 40.484375 46.53125 36.375 47.5 
Q 32.28125 48.484375 27.875 48.484375 
Q 21.1875 48.484375 17.84375 46.4375 
Q 14.5 44.390625 14.5 40.28125 
Q 14.5 37.15625 16.890625 35.375 
Q 19.28125 33.59375 26.515625 31.984375 
L 29.59375 31.296875 
Q 39.15625 29.25 43.1875 25.515625 
Q 47.21875 21.78125 47.21875 15.09375 
Q 47.21875 7.46875 41.1875 3.015625 
Q 35.15625 -1.421875 24.609375 -1.421875 
Q 20.21875 -1.421875 15.453125 -0.5625 
Q 10.6875 0.296875 5.421875 2 
L 5.421875 11.28125 
Q 10.40625 8.6875 15.234375 7.390625 
Q 20.0625 6.109375 24.8125 6.109375 
Q 31.15625 6.109375 34.5625 8.28125 
Q 37.984375 10.453125 37.984375 14.40625 
Q 37.984375 18.0625 35.515625 20.015625 
Q 33.0625 21.96875 24.703125 23.78125 
L 21.578125 24.515625 
Q 13.234375 26.265625 9.515625 29.90625 
Q 5.8125 33.546875 5.8125 39.890625 
Q 5.8125 47.609375 11.28125 51.796875 
Q 16.75 56 26.8125 56 
Q 31.78125 56 36.171875 55.265625 
Q 40.578125 54.546875 44.28125 53.078125 
z
" id="DejaVuSans-115"/>
      </defs>
      <use xlink:href="#DejaVuSans-67"/>
      <use x="69.824219" xlink:href="#DejaVuSans-104"/>
      <use x="133.203125" xlink:href="#DejaVuSans-97"/>
      <use x="194.482422" xlink:href="#DejaVuSans-114"/>
      <use x="235.595703" xlink:href="#DejaVuSans-97"/>
      <use x="296.875" xlink:href="#DejaVuSans-99"/>
      <use x="351.855469" xlink:href="#DejaVuSans-116"/>
      <use x="391.064453" xlink:href="#DejaVuSans-101"/>
      <use x="452.587891" xlink:href="#DejaVuSans-114"/>
      <use x="493.701172" xlink:href="#DejaVuSans-105"/>
      <use x="521.484375" xlink:href="#DejaVuSans-115"/>
      <use x="573.583984" xlink:href="#DejaVuSans-116"/>
      <use x="612.792969" xlink:href="#DejaVuSans-105"/>
      <use x="640.576172" xlink:href="#DejaVuSans-99"/>
      <use x="695.556641" xlink:href="#DejaVuSans-115"/>
     </g>
    </g>
   </g>
   <g id="matplotlib.axis_2">
    <g id="ytick_1">
     <g id="line2d_33">
      <defs>
       <path d="M 0 0 
L -3.5 0 
" id="m41dfa711f7" style="stroke:#000000;stroke-width:0.8;"/>
      </defs>
      <g>
       <use style="stroke:#000000;stroke-width:0.8;" x="57.6" xlink:href="#m41dfa711f7" y="58.104"/>
      </g>
     </g>
     <g id="text_34">
      <!-- 0 -->
      <g transform="translate(48.520313 60.667281)rotate(-90)scale(0.1 -0.1)">
       <use xlink:href="#DejaVuSans-48"/>
      </g>
     </g>
    </g>
    <g id="ytick_2">
     <g id="line2d_34">
      <g>
       <use style="stroke:#000000;stroke-width:0.8;" x="57.6" xlink:href="#m41dfa711f7" y="91.368"/>
      </g>
     </g>
     <g id="text_35">
      <!-- 1 -->
      <g transform="translate(48.520313 93.931281)rotate(-90)scale(0.1 -0.1)">
       <use xlink:href="#DejaVuSans-49"/>
      </g>
     </g>
    </g>
    <g id="ytick_3">
     <g id="line2d_35">
      <g>
       <use style="stroke:#000000;stroke-width:0.8;" x="57.6" xlink:href="#m41dfa711f7" y="124.632"/>
      </g>
     </g>
     <g id="text_36">
      <!-- 2 -->
      <g transform="translate(48.520313 127.195281)rotate(-90)scale(0.1 -0.1)">
       <use xlink:href="#DejaVuSans-50"/>
      </g>
     </g>
    </g>
    <g id="ytick_4">
     <g id="line2d_36">
      <g>
       <use style="stroke:#000000;stroke-width:0.8;" x="57.6" xlink:href="#m41dfa711f7" y="157.896"/>
      </g>
     </g>
     <g id="text_37">
      <!-- 3 -->
      <g transform="translate(48.520313 160.459281)rotate(-90)scale(0.1 -0.1)">
       <use xlink:href="#DejaVuSans-51"/>
      </g>
     </g>
    </g>
    <g id="ytick_5">
     <g id="line2d_37">
      <g>
       <use style="stroke:#000000;stroke-width:0.8;" x="57.6" xlink:href="#m41dfa711f7" y="191.16"/>
      </g>
     </g>
     <g id="text_38">
      <!-- 4 -->
      <g transform="translate(48.520313 193.723281)rotate(-90)scale(0.1 -0.1)">
       <use xlink:href="#DejaVuSans-52"/>
      </g>
     </g>
    </g>
    <g id="ytick_6">
     <g id="line2d_38">
      <g>
       <use style="stroke:#000000;stroke-width:0.8;" x="57.6" xlink:href="#m41dfa711f7" y="224.424"/>
      </g>
     </g>
     <g id="text_39">
      <!-- 5 -->
      <g transform="translate(48.520313 226.987281)rotate(-90)scale(0.1 -0.1)">
       <use xlink:href="#DejaVuSans-53"/>
      </g>
     </g>
    </g>
    <g id="ytick_7">
     <g id="line2d_39">
      <g>
       <use style="stroke:#000000;stroke-width:0.8;" x="57.6" xlink:href="#m41dfa711f7" y="257.688"/>
      </g>
     </g>
     <g id="text_40">
      <!-- 6 -->
      <g transform="translate(48.520313 260.251281)rotate(-90)scale(0.1 -0.1)">
       <use xlink:href="#DejaVuSans-54"/>
      </g>
     </g>
    </g>
    <g id="ytick_8">
     <g id="line2d_40">
      <g>
       <use style="stroke:#000000;stroke-width:0.8;" x="57.6" xlink:href="#m41dfa711f7" y="290.952"/>
      </g>
     </g>
     <g id="text_41">
      <!-- 7 -->
      <g transform="translate(48.520313 293.515281)rotate(-90)scale(0.1 -0.1)">
       <use xlink:href="#DejaVuSans-55"/>
      </g>
     </g>
    </g>
    <g id="text_42">
     <!-- Values -->
     <g transform="translate(34.842187 190.863937)rotate(-90)scale(0.1 -0.1)">
      <defs>
       <path d="M 28.609375 0 
L 0.78125 72.90625 
L 11.078125 72.90625 
L 34.1875 11.53125 
L 57.328125 72.90625 
L 67.578125 72.90625 
L 39.796875 0 
z
" id="DejaVuSans-86"/>
       <path d="M 9.421875 75.984375 
L 18.40625 75.984375 
L 18.40625 0 
L 9.421875 0 
z
" id="DejaVuSans-108"/>
       <path d="M 8.5 21.578125 
L 8.5 54.6875 
L 17.484375 54.6875 
L 17.484375 21.921875 
Q 17.484375 14.15625 20.5 10.265625 
Q 23.53125 6.390625 29.59375 6.390625 
Q 36.859375 6.390625 41.078125 11.03125 
Q 45.3125 15.671875 45.3125 23.6875 
L 45.3125 54.6875 
L 54.296875 54.6875 
L 54.296875 0 
L 45.3125 0 
L 45.3125 8.40625 
Q 42.046875 3.421875 37.71875 1 
Q 33.40625 -1.421875 27.6875 -1.421875 
Q 18.265625 -1.421875 13.375 4.4375 
Q 8.5 10.296875 8.5 21.578125 
z
M 31.109375 56 
z
" id="DejaVuSans-117"/>
      </defs>
      <use xlink:href="#DejaVuSans-86"/>
      <use x="60.658203" xlink:href="#DejaVuSans-97"/>
      <use x="121.9375" xlink:href="#DejaVuSans-108"/>
      <use x="149.720703" xlink:href="#DejaVuSans-117"/>
      <use x="213.099609" xlink:href="#DejaVuSans-101"/>
      <use x="274.623047" xlink:href="#DejaVuSans-115"/>
     </g>
    </g>
   </g>
  </g>
 </g>
 <defs>
  <clipPath id="p435fe9c710">
   <rect height="266.112" width="357.12" x="57.6" y="41.472"/>
  </clipPath>
 </defs>
</svg>
